<svg width="96" height="96" xmlns="http://www.w3.org/2000/svg" xmlns:xlink="http://www.w3.org/1999/xlink" xml:space="preserve" overflow="hidden"><g transform="translate(-655 -219)"><path d="M748.1 258.7 736.8 239.9 735.8 238.2 734.1 239.3 726.5 244C725.6 244.5 724.9 245.4 724.6 246.4 724.4 247.1 724.4 247.9 724.7 248.6 722.6 249.3 720.5 249.7 718.3 249.7 715.3 249.6 712.3 249.1 709.4 248.2 708 247.8 706.5 247.5 705 247.2L704.8 247.2 704.8 247.2C704.7 247.2 704.6 247.2 704.6 247.2L704.4 247.2 704.2 247.2C704 247.2 703.9 247.2 703.7 247.2L703.7 247.2C702 247.2 700.3 247.9 699.2 249.2L698.4 250.1C697.1 249.6 695.7 249.3 694.3 249.3 694 249.3 693.8 249.3 693.5 249.3 692.9 249.3 692.4 249.4 691.8 249.4 690.5 249.5 689.2 249.6 687.9 249.6 685.7 249.7 683.5 249.2 681.5 248.3 681.6 247.7 681.6 247.1 681.5 246.4 681.2 245.4 680.5 244.5 679.6 244L672.1 239.3 670.4 238.2 669.4 239.9 657.9 258.7 656.9 260.4 658.6 261.4 666.3 266.1C667.7 267 669.4 266.9 670.7 265.9L677.2 273.5 677.3 273.7 677.5 273.8 677.5 273.8 676.1 275.4C674.3 277.5 674.5 280.6 676.5 282.4L676.5 282.4 676.5 282.4C677.4 283.2 678.5 283.6 679.7 283.6 679.9 283.6 680.1 283.6 680.3 283.6 681 283.5 681.6 283.3 682.2 282.9 682.3 284.1 682.9 285.3 683.8 286.1L683.8 286.1 683.8 286.1C684.7 286.9 685.8 287.3 687 287.3 687.1 287.3 687.3 287.3 687.4 287.3 687.9 287.3 688.4 287.2 688.9 287 689 288.1 689.5 289.2 690.4 289.9L690.4 289.9 690.4 289.9C691.2 290.6 692.2 291 693.2 291 693.4 291 693.5 291 693.7 291 694.4 291 695 290.7 695.6 290.4 695.8 291.1 696.2 291.8 696.8 292.3 697.6 293 698.6 293.4 699.7 293.3L699.9 293.3 700.1 293.3C700.7 293.2 701.3 292.9 701.8 292.6L701.9 292.7 703.3 293.8 703.4 293.9 703.5 294C704.4 294.6 705.5 294.9 706.5 294.9 706.7 294.9 706.9 294.9 707.1 294.9 709.6 294.7 711.6 292.9 712.3 290.5 714.5 290.1 716.3 288.4 716.9 286.2 719.2 285.7 721 284 721.5 281.8 721.6 281.8 721.8 281.8 721.9 281.8 725.1 281.5 727.5 278.7 727.3 275.5 727.3 275.3 727.3 275 727.3 274.8L728.1 273.8 735 265.8C736.3 266.9 738.1 266.9 739.6 266L747.3 261.3 749 260.3 748.1 258.7ZM667.3 264.4 659.6 259.7 671 240.9 678.6 245.6C679.4 246 679.8 247 679.5 247.8L678.9 248.8 670.2 263.2 669.6 264.1C669.3 264.4 668.8 264.6 668.3 264.6 668 264.7 667.6 264.6 667.3 264.4ZM680.1 281.6C680 281.6 679.9 281.6 679.8 281.6 678.2 281.6 676.9 280.2 676.9 278.6 676.9 277.9 677.2 277.2 677.6 276.7L682.9 270.7C683.5 270.1 684.3 269.7 685.2 269.7 685.9 269.7 686.6 270 687.1 270.4 688.3 271.5 688.5 273.4 687.4 274.6L682.1 280.6C681.6 281.2 680.9 281.5 680.1 281.6ZM687.5 285.4C687.4 285.4 687.3 285.4 687.2 285.4 685.6 285.4 684.3 284 684.3 282.4 684.3 281.7 684.6 281 685 280.5L689.6 275.2C690.2 274.6 691 274.2 691.9 274.2 692.6 274.2 693.3 274.5 693.8 274.9 695 276 695.2 277.9 694.1 279.1L689.5 284.4C689 285 688.3 285.4 687.5 285.4L687.5 285.4ZM693.8 289.1C693.7 289.1 693.6 289.1 693.5 289.1 692.9 289.1 692.4 288.9 691.9 288.5 690.9 287.6 690.8 286 691.7 285L696.3 279.7C696.8 279.2 697.5 278.9 698.2 278.9 698.8 278.9 699.4 279.1 699.8 279.5 700.8 280.4 700.9 282 700 283L695.4 288.3C695 288.8 694.4 289.1 693.8 289.1L693.8 289.1ZM699.9 291.5C699.4 291.5 698.8 291.4 698.4 291 697.6 290.3 697.5 289 698.2 288.2L702.1 283.7C702.5 283.3 703 283 703.6 283 704.1 283 704.5 283.2 704.9 283.5 705.7 284.2 705.8 285.5 705.1 286.3L701.2 290.8C700.9 291.2 700.4 291.4 699.9 291.5L699.9 291.5ZM721.9 279.8C721.8 279.8 721.6 279.8 721.5 279.8 720.9 279.8 720.3 279.6 719.8 279.4 719.8 279.6 719.9 279.8 719.9 280 720.1 282.2 718.5 284.1 716.3 284.3 716.3 284.3 716.3 284.3 716.3 284.3 716 284.3 715.6 284.3 715.3 284.2L715.3 284.3C715.5 286.5 713.9 288.4 711.7 288.6 711.7 288.6 711.7 288.6 711.7 288.6 711.4 288.6 711 288.6 710.7 288.5L710.7 288.6C710.9 290.8 709.3 292.7 707.1 292.9 707.1 292.9 707.1 292.9 707.1 292.9 707 292.9 706.9 292.9 706.8 292.9 706.1 292.9 705.4 292.7 704.7 292.3L703.4 291.3 706.6 287.6C708 285.9 707.8 283.4 706.2 282 705.5 281.4 704.6 281 703.6 281 703.3 281 702.9 281 702.6 281.1 702.5 279.9 702 278.8 701.1 278 700.3 277.3 699.2 276.9 698.1 276.9L698.1 276.9C697.6 276.9 697.2 277 696.7 277.1 696.7 275.7 696.1 274.4 695 273.4 694.1 272.6 693 272.1 691.8 272.2L691.8 272.2C691.2 272.2 690.6 272.3 690 272.5 689.9 271.1 689.3 269.8 688.3 268.9 687.4 268.1 686.3 267.6 685.1 267.7L685.1 267.7C683.7 267.7 682.3 268.3 681.3 269.4L678.7 272.4 678.6 272.3 671.8 264.4 680.5 250C682.7 251.1 685.2 251.6 687.7 251.5 689.7 251.5 691.7 251.3 693.5 251.1 693.7 251.1 693.9 251.1 694.1 251.1 695 251.1 695.9 251.2 696.7 251.5L691.2 258C690.1 259.2 689.6 260.8 689.7 262.4 689.8 264 690.6 265.4 691.8 266.5L691.8 266.5 691.8 266.5C692.9 267.4 694.3 267.9 695.7 267.9 695.9 267.9 696 267.9 696.2 267.9 697.8 267.8 699.3 267 700.3 265.8L707.1 258 707.1 258 708.2 259 724.3 272.8C725 273.4 725.4 274.4 725.4 275.3 725.4 275.4 725.4 275.7 725.4 275.7 725.6 277.8 724 279.6 721.9 279.8 721.9 279.8 721.9 279.8 721.9 279.8ZM726.8 272.5C726.5 272 726.1 271.6 725.7 271.2L707 255.1 698.8 264.5C698.1 265.3 697.2 265.8 696.1 265.9 696 265.9 695.9 265.9 695.8 265.9 694.8 265.9 693.9 265.5 693.1 264.9 691.4 263.5 691.2 261.1 692.6 259.4 692.6 259.4 692.7 259.3 692.7 259.3L700.6 250.3C701.4 249.4 702.5 249 703.6 249 703.7 249 703.8 249 704 249 704.2 249 704.3 249.1 704.5 249.1 709.1 250 713.3 251.6 718.2 251.6 720.7 251.6 723.2 251.2 725.5 250.3L731.3 259.7 734 264.2 726.8 272.5ZM738.7 264.4C738.4 264.6 738 264.7 737.7 264.7 737.2 264.7 736.7 264.5 736.3 264.1L735.7 263.1 733 258.7 726.7 248.3C726.1 247.4 726.4 246.3 727.2 245.7 727.3 245.7 727.3 245.6 727.4 245.6L735.1 240.9 746.4 259.7 738.7 264.4Z" stroke="#000000" stroke-width="1.33333"/></g></svg>