<svg width="96" height="96" xmlns="http://www.w3.org/2000/svg" xmlns:xlink="http://www.w3.org/1999/xlink" xml:space="preserve" overflow="hidden"><g transform="translate(-332 -422)"><path d="M376.9 494.4C376.4 494.4 375.8 494.3 375.4 493.9 374.6 493.2 374.5 491.9 375.2 491.1L379.1 486.6C379.8 485.8 381.1 485.7 381.9 486.4 382.7 487.1 382.8 488.4 382.1 489.2L378.2 493.7C377.9 494.1 377.4 494.3 376.9 494.4Z"/><path d="M370.8 492.1C370.1 492.2 369.5 492 368.9 491.5 367.9 490.6 367.8 489 368.7 488L373.3 482.7C374.2 481.7 375.8 481.6 376.8 482.5 377.8 483.4 377.9 485 377 486L372.4 491.3C372 491.8 371.4 492.1 370.8 492.1Z"/><path d="M364.5 488.4C363.7 488.5 362.9 488.2 362.3 487.7 361.1 486.6 360.9 484.7 362 483.5L366.6 478.2C367.7 477 369.6 476.8 370.8 477.9 372 479 372.2 480.9 371.1 482.1L366.5 487.4C366 488 365.2 488.4 364.5 488.4Z"/><path d="M357.2 484.7C356.4 484.8 355.6 484.5 355 484 353.8 482.9 353.6 481 354.7 479.8L360 473.8C361.1 472.6 363 472.4 364.2 473.5 365.4 474.6 365.6 476.5 364.5 477.7L359.2 483.7C358.6 484.3 357.9 484.6 357.2 484.7Z"/><path d="M336.6 462.7 344.3 467.4C345.2 468 346.5 467.7 347 466.7L356.3 451.3C356.9 450.4 356.6 449.1 355.6 448.6L348 443.9 336.6 462.7Z"/><path d="M401.4 475.8 385.3 462 384.2 461 377.3 468.9C376.3 470.1 374.9 470.8 373.3 470.9 373.1 470.9 372.9 470.9 372.8 470.9 371.3 470.9 369.9 470.4 368.9 469.4 366.4 467.2 366.2 463.4 368.3 460.9L374.2 454.1C369.6 453.5 363.7 455.9 357.6 452.9L348.9 467.3 355.7 475.2 358.3 472.2C359.2 471.1 360.6 470.5 362.1 470.5L362.1 470.5C363.3 470.5 364.5 470.9 365.4 471.7 366.5 472.6 367 473.9 367.1 475.3 367.6 475.1 368.2 475 368.8 475 370 475 371.2 475.4 372.1 476.2 373.2 477.2 373.8 478.5 373.8 479.9 374.2 479.8 374.7 479.7 375.1 479.7L375.1 479.7C376.2 479.7 377.2 480.1 378.1 480.8 379 481.6 379.5 482.7 379.6 483.9 379.9 483.8 380.3 483.7 380.7 483.7L380.7 483.7C381.7 483.7 382.6 484 383.3 484.7 384.1 485.4 384.6 486.4 384.7 487.4 384.8 488.5 384.4 489.5 383.7 490.3L380.3 494.2 381.7 495.3C382.4 495.7 383.2 496 384.1 495.9 386.3 495.7 387.9 493.8 387.7 491.6 387.7 491.6 387.7 491.5 387.7 491.5 388 491.6 388.4 491.6 388.7 491.6 390.9 491.4 392.5 489.5 392.3 487.3 392.3 487.3 392.3 487.2 392.3 487.2 392.6 487.3 393 487.3 393.3 487.3 395.5 487.1 397.1 485.2 396.9 483 396.9 482.8 396.8 482.6 396.8 482.4 397.4 482.7 398.1 482.9 398.9 482.8 401.1 482.6 402.7 480.7 402.5 478.5 402.6 477.4 402.1 476.5 401.4 475.8Z"/><path d="M423.4 462.7 415.7 467.4C414.8 468 413.5 467.7 413 466.7L403.7 451.3C403.1 450.4 403.4 449.1 404.4 448.6L412.1 443.9 423.4 462.7Z"/><path d="M402.5 453.3C394.2 456.3 388.2 453.4 381.5 452.1 381.4 452.1 381 452 381 452 379.8 451.9 378.5 452.3 377.6 453.3L369.7 462.3C368.2 464 368.4 466.5 370.1 467.9 371 468.6 372 469 373.1 468.9 374.1 468.8 375.1 468.4 375.8 467.5 375.8 467.5 384 458.1 384 458.1L402.7 474.2 402.7 474.2 402.7 474.2C403.2 474.7 403.4 474.9 403.8 475.5L411 467.2 402.5 453.3Z"/></g></svg>