<svg width="56" height="56" xmlns="http://www.w3.org/2000/svg" xmlns:xlink="http://www.w3.org/1999/xlink" xml:space="preserve" overflow="hidden"><g transform="translate(-716 -503)"><path d="M770.308 526.158 763.717 515.192 763.133 514.2 762.142 514.842 757.708 517.583C757.183 517.875 756.775 518.4 756.6 518.983 756.483 519.392 756.483 519.858 756.658 520.267 755.433 520.675 754.208 520.908 752.925 520.908 751.175 520.85 749.425 520.558 747.733 520.033 746.917 519.8 746.042 519.625 745.167 519.45L745.05 519.45 745.05 519.45C744.992 519.45 744.933 519.45 744.933 519.45L744.817 519.45 744.7 519.45C744.583 519.45 744.525 519.45 744.408 519.45L744.408 519.45C743.417 519.45 742.425 519.858 741.783 520.617L741.317 521.142C740.558 520.85 739.742 520.675 738.925 520.675 738.75 520.675 738.633 520.675 738.458 520.675 738.108 520.675 737.817 520.733 737.467 520.733 736.708 520.792 735.95 520.85 735.192 520.85 733.908 520.908 732.625 520.617 731.458 520.092 731.517 519.742 731.517 519.392 731.458 518.983 731.283 518.4 730.875 517.875 730.35 517.583L725.975 514.842 724.983 514.2 724.4 515.192 717.692 526.158 717.108 527.15 718.1 527.733 722.592 530.475C723.408 531 724.4 530.942 725.158 530.358L728.95 534.792 729.008 534.908 729.125 534.967 729.125 534.967 728.308 535.9C727.258 537.125 727.375 538.933 728.542 539.983L728.542 539.983 728.542 539.983C729.067 540.45 729.708 540.683 730.408 540.683 730.525 540.683 730.642 540.683 730.758 540.683 731.167 540.625 731.517 540.508 731.867 540.275 731.925 540.975 732.275 541.675 732.8 542.142L732.8 542.142 732.8 542.142C733.325 542.608 733.967 542.842 734.667 542.842 734.725 542.842 734.842 542.842 734.9 542.842 735.192 542.842 735.483 542.783 735.775 542.667 735.833 543.308 736.125 543.95 736.65 544.358L736.65 544.358 736.65 544.358C737.117 544.767 737.7 545 738.283 545 738.4 545 738.458 545 738.575 545 738.983 545 739.333 544.825 739.683 544.65 739.8 545.058 740.033 545.467 740.383 545.758 740.85 546.167 741.433 546.4 742.075 546.342L742.192 546.342 742.308 546.342C742.658 546.283 743.008 546.108 743.3 545.933L743.358 545.992 744.175 546.633 744.233 546.692 744.292 546.75C744.817 547.1 745.458 547.275 746.042 547.275 746.158 547.275 746.275 547.275 746.392 547.275 747.85 547.158 749.017 546.108 749.425 544.708 750.708 544.475 751.758 543.483 752.108 542.2 753.45 541.908 754.5 540.917 754.792 539.633 754.85 539.633 754.967 539.633 755.025 539.633 756.892 539.458 758.292 537.825 758.175 535.958 758.175 535.842 758.175 535.667 758.175 535.55L758.642 534.967 762.667 530.3C763.425 530.942 764.475 530.942 765.35 530.417L769.842 527.675 770.833 527.092 770.308 526.158ZM723.175 529.483 718.683 526.742 725.333 515.775 729.767 518.517C730.233 518.75 730.467 519.333 730.292 519.8L729.942 520.383 724.867 528.783 724.517 529.308C724.342 529.483 724.05 529.6 723.758 529.6 723.583 529.658 723.35 529.6 723.175 529.483ZM730.642 539.517C730.583 539.517 730.525 539.517 730.467 539.517 729.533 539.517 728.775 538.7 728.775 537.767 728.775 537.358 728.95 536.95 729.183 536.658L732.275 533.158C732.625 532.808 733.092 532.575 733.617 532.575 734.025 532.575 734.433 532.75 734.725 532.983 735.425 533.625 735.542 534.733 734.9 535.433L731.808 538.933C731.517 539.283 731.108 539.458 730.642 539.517ZM734.958 541.733C734.9 541.733 734.842 541.733 734.783 541.733 733.85 541.733 733.092 540.917 733.092 539.983 733.092 539.575 733.267 539.167 733.5 538.875L736.183 535.783C736.533 535.433 737 535.2 737.525 535.2 737.933 535.2 738.342 535.375 738.633 535.608 739.333 536.25 739.45 537.358 738.808 538.058L736.125 541.15C735.833 541.5 735.425 541.733 734.958 541.733L734.958 541.733ZM738.633 543.892C738.575 543.892 738.517 543.892 738.458 543.892 738.108 543.892 737.817 543.775 737.525 543.542 736.942 543.017 736.883 542.083 737.408 541.5L740.092 538.408C740.383 538.117 740.792 537.942 741.2 537.942 741.55 537.942 741.9 538.058 742.133 538.292 742.717 538.817 742.775 539.75 742.25 540.333L739.567 543.425C739.333 543.717 738.983 543.892 738.633 543.892L738.633 543.892ZM742.192 545.292C741.9 545.292 741.55 545.233 741.317 545 740.85 544.592 740.792 543.833 741.2 543.367L743.475 540.742C743.708 540.508 744 540.333 744.35 540.333 744.642 540.333 744.875 540.45 745.108 540.625 745.575 541.033 745.633 541.792 745.225 542.258L742.95 544.883C742.775 545.117 742.483 545.233 742.192 545.292L742.192 545.292ZM755.025 538.467C754.967 538.467 754.85 538.467 754.792 538.467 754.442 538.467 754.092 538.35 753.8 538.233 753.8 538.35 753.858 538.467 753.858 538.583 753.975 539.867 753.042 540.975 751.758 541.092 751.758 541.092 751.758 541.092 751.758 541.092 751.583 541.092 751.35 541.092 751.175 541.033L751.175 541.092C751.292 542.375 750.358 543.483 749.075 543.6 749.075 543.6 749.075 543.6 749.075 543.6 748.9 543.6 748.667 543.6 748.492 543.542L748.492 543.6C748.608 544.883 747.675 545.992 746.392 546.108 746.392 546.108 746.392 546.108 746.392 546.108 746.333 546.108 746.275 546.108 746.217 546.108 745.808 546.108 745.4 545.992 744.992 545.758L744.233 545.175 746.1 543.017C746.917 542.025 746.8 540.567 745.867 539.75 745.458 539.4 744.933 539.167 744.35 539.167 744.175 539.167 743.942 539.167 743.767 539.225 743.708 538.525 743.417 537.883 742.892 537.417 742.425 537.008 741.783 536.775 741.142 536.775L741.142 536.775C740.85 536.775 740.617 536.833 740.325 536.892 740.325 536.075 739.975 535.317 739.333 534.733 738.808 534.267 738.167 533.975 737.467 534.033L737.467 534.033C737.117 534.033 736.767 534.092 736.417 534.208 736.358 533.392 736.008 532.633 735.425 532.108 734.9 531.642 734.258 531.35 733.558 531.408L733.558 531.408C732.742 531.408 731.925 531.758 731.342 532.4L729.825 534.15 729.767 534.092 725.8 529.483 730.875 521.083C732.158 521.725 733.617 522.017 735.075 521.958 736.242 521.958 737.408 521.842 738.458 521.725 738.575 521.725 738.692 521.725 738.808 521.725 739.333 521.725 739.858 521.783 740.325 521.958L737.117 525.75C736.475 526.45 736.183 527.383 736.242 528.317 736.3 529.25 736.767 530.067 737.467 530.708L737.467 530.708 737.467 530.708C738.108 531.233 738.925 531.525 739.742 531.525 739.858 531.525 739.917 531.525 740.033 531.525 740.967 531.467 741.842 531 742.425 530.3L746.392 525.75 746.392 525.75 747.033 526.333 756.425 534.383C756.833 534.733 757.067 535.317 757.067 535.842 757.067 535.9 757.067 536.075 757.067 536.075 757.183 537.3 756.25 538.35 755.025 538.467 755.025 538.467 755.025 538.467 755.025 538.467ZM757.883 534.208C757.708 533.917 757.475 533.683 757.242 533.45L746.333 524.058 741.55 529.542C741.142 530.008 740.617 530.3 739.975 530.358 739.917 530.358 739.858 530.358 739.8 530.358 739.217 530.358 738.692 530.125 738.225 529.775 737.233 528.958 737.117 527.558 737.933 526.567 737.933 526.567 737.992 526.508 737.992 526.508L742.6 521.258C743.067 520.733 743.708 520.5 744.35 520.5 744.408 520.5 744.467 520.5 744.583 520.5 744.7 520.5 744.758 520.558 744.875 520.558 747.558 521.083 750.008 522.017 752.867 522.017 754.325 522.017 755.783 521.783 757.125 521.258L760.508 526.742 762.083 529.367 757.883 534.208ZM764.825 529.483C764.65 529.6 764.417 529.658 764.242 529.658 763.95 529.658 763.658 529.542 763.425 529.308L763.075 528.725 761.5 526.158 757.825 520.092C757.475 519.567 757.65 518.925 758.117 518.575 758.175 518.575 758.175 518.517 758.233 518.517L762.725 515.775 769.317 526.742 764.825 529.483Z" stroke="#000000" stroke-width="0.777776"/></g></svg>