<svg width="98" height="94" xmlns="http://www.w3.org/2000/svg" xmlns:xlink="http://www.w3.org/1999/xlink" xml:space="preserve" overflow="hidden"><g transform="translate(-654 -220)"><g><g><path d="M64.6125 27.5522 56.7701 14.5048 56.0761 13.325 54.8963 14.0884 49.6218 17.3503C48.9972 17.6973 48.5114 18.3219 48.3032 19.0159 48.1644 19.5017 48.1644 20.0569 48.3726 20.5427 46.9152 21.0285 45.4577 21.3061 43.9309 21.3061 41.8489 21.2367 39.7668 20.8897 37.7542 20.2651 36.7826 19.9875 35.7416 19.7793 34.7006 19.5711L34.5618 19.5711 34.5618 19.5711C34.4924 19.5711 34.423 19.5711 34.423 19.5711L34.2842 19.5711 34.1454 19.5711C34.0066 19.5711 33.9372 19.5711 33.7984 19.5711L33.7984 19.5711C32.6185 19.5711 31.4387 20.0569 30.6753 20.9591L30.1201 21.5838C29.2179 21.2367 28.2463 21.0285 27.2746 21.0285 27.0664 21.0285 26.9276 21.0285 26.7194 21.0285 26.303 21.0285 25.956 21.0979 25.5396 21.0979 24.6374 21.1673 23.7352 21.2367 22.833 21.2367 21.3061 21.3061 19.7793 20.9591 18.3913 20.3345 18.4607 19.9181 18.4607 19.5017 18.3913 19.0159 18.1831 18.3219 17.6973 17.6973 17.0727 17.3503L11.8676 14.0884 10.6878 13.325 9.99376 14.5048 2.01263 27.5522 1.31862 28.7321 2.49844 29.4261 7.84233 32.6879C8.81394 33.3125 9.99376 33.2431 10.896 32.5491L15.4071 37.8236 15.4765 37.9624 15.6153 38.0318 15.6153 38.0318 14.6436 39.1422C13.3944 40.5997 13.5332 42.7511 14.9212 44.0003L14.9212 44.0003 14.9212 44.0003C15.5459 44.5555 16.3093 44.8331 17.1421 44.8331 17.2809 44.8331 17.4197 44.8331 17.5585 44.8331 18.0443 44.7637 18.4607 44.6249 18.8771 44.3473 18.9465 45.1801 19.3629 46.013 19.9875 46.5682L19.9875 46.5682 19.9875 46.5682C20.6121 47.1234 21.3755 47.401 22.2084 47.401 22.2778 47.401 22.4166 47.401 22.486 47.401 22.833 47.401 23.18 47.3316 23.527 47.1928 23.5964 47.9562 23.9434 48.7196 24.568 49.2054L24.568 49.2054 24.568 49.2054C25.1232 49.6912 25.8172 49.9688 26.5112 49.9688 26.65 49.9688 26.7194 49.9688 26.8582 49.9688 27.344 49.9688 27.7605 49.7606 28.1769 49.5524 28.3157 50.0382 28.5933 50.524 29.0097 50.871 29.5649 51.3568 30.2589 51.6344 31.0223 51.565L31.1611 51.565 31.2999 51.565C31.7163 51.4956 32.1327 51.2874 32.4797 51.0792L32.5491 51.1486 33.5207 51.912 33.5901 51.9814 33.6595 52.0508C34.2842 52.4673 35.0476 52.6755 35.7416 52.6755 35.8804 52.6755 36.0192 52.6755 36.158 52.6755 37.893 52.5367 39.281 51.2874 39.7668 49.6218 41.2937 49.3442 42.5429 48.1644 42.9593 46.6376 44.5555 46.2906 45.8047 45.1107 46.1518 43.5839 46.2212 43.5839 46.36 43.5839 46.4294 43.5839 48.6502 43.3757 50.3158 41.4325 50.177 39.2116 50.177 39.0728 50.177 38.8646 50.177 38.7258L50.7322 38.0318 55.5209 32.4797C56.4231 33.2431 57.6723 33.2431 58.7134 32.6185L64.0573 29.3567 65.2371 28.6627 64.6125 27.5522ZM8.53634 31.5081 3.19245 28.2463 11.1042 15.1988 16.3787 18.4607C16.9339 18.7383 17.2115 19.4323 17.0033 19.9875L16.5869 20.6815 10.549 30.6753 10.1326 31.2999C9.92436 31.5081 9.57736 31.6469 9.23035 31.6469 9.02215 31.7163 8.74454 31.6469 8.53634 31.5081ZM17.4197 43.4451C17.3503 43.4451 17.2809 43.4451 17.2115 43.4451 16.1011 43.4451 15.1988 42.4735 15.1988 41.3631 15.1988 40.8773 15.4071 40.3915 15.6847 40.0445L19.3629 35.8804C19.7793 35.464 20.3345 35.1864 20.9591 35.1864 21.445 35.1864 21.9308 35.3946 22.2778 35.6722 23.1106 36.4356 23.2494 37.7542 22.486 38.587L18.8077 42.7511C18.4607 43.1675 17.9749 43.3757 17.4197 43.4451ZM22.5554 46.0824C22.486 46.0824 22.4166 46.0824 22.3472 46.0824 21.2367 46.0824 20.3345 45.1107 20.3345 44.0003 20.3345 43.5145 20.5427 43.0287 20.8203 42.6817L24.0128 39.0034C24.4292 38.587 24.9844 38.3094 25.609 38.3094 26.0948 38.3094 26.5806 38.5176 26.9276 38.7952 27.7605 39.5586 27.8993 40.8773 27.1358 41.7101L23.9434 45.3883C23.5964 45.8047 23.1106 46.0824 22.5554 46.0824L22.5554 46.0824ZM26.9276 48.6502C26.8582 48.6502 26.7888 48.6502 26.7194 48.6502 26.303 48.6502 25.956 48.5114 25.609 48.2338 24.915 47.6092 24.8456 46.4988 25.4702 45.8047L28.6627 42.1265C29.0097 41.7795 29.4955 41.5713 29.9813 41.5713 30.3977 41.5713 30.8141 41.7101 31.0917 41.9877 31.7857 42.6123 31.8551 43.7227 31.2305 44.4167L28.0381 48.095C27.7605 48.442 27.344 48.6502 26.9276 48.6502L26.9276 48.6502ZM31.1611 50.3158C30.8141 50.3158 30.3977 50.2464 30.1201 49.9688 29.5649 49.483 29.4955 48.5808 29.9813 48.0256L32.6879 44.9025C32.9655 44.6249 33.3125 44.4167 33.729 44.4167 34.076 44.4167 34.3536 44.5555 34.6312 44.7637 35.1864 45.2495 35.2558 46.1518 34.77 46.707L32.0633 49.83C31.8551 50.1076 31.5081 50.2464 31.1611 50.3158L31.1611 50.3158ZM46.4294 42.1959C46.36 42.1959 46.2212 42.1959 46.1518 42.1959 45.7353 42.1959 45.3189 42.0571 44.9719 41.9183 44.9719 42.0571 45.0413 42.1959 45.0413 42.3347 45.1801 43.8615 44.0697 45.1801 42.5429 45.3189 42.5429 45.3189 42.5429 45.3189 42.5429 45.3189 42.3347 45.3189 42.0571 45.3189 41.8489 45.2495L41.8489 45.3189C41.9877 46.8458 40.8773 48.1644 39.3504 48.3032 39.3504 48.3032 39.3504 48.3032 39.3504 48.3032 39.1422 48.3032 38.8646 48.3032 38.6564 48.2338L38.6564 48.3032C38.7952 49.83 37.6848 51.1486 36.158 51.2874 36.158 51.2874 36.158 51.2874 36.158 51.2874 36.0886 51.2874 36.0192 51.2874 35.9498 51.2874 35.464 51.2874 34.9782 51.1486 34.4924 50.871L33.5901 50.177 35.811 47.6092C36.7826 46.4294 36.6438 44.6943 35.5334 43.7227 35.0476 43.3063 34.423 43.0287 33.729 43.0287 33.5207 43.0287 33.2431 43.0287 33.0349 43.0981 32.9655 42.2653 32.6185 41.5019 31.9939 40.9467 31.4387 40.4609 30.6753 40.1833 29.9119 40.1833L29.9119 40.1833C29.5649 40.1833 29.2873 40.2527 28.9403 40.3221 28.9403 39.3504 28.5239 38.4482 27.7605 37.7542 27.1358 37.199 26.3724 36.852 25.5396 36.9214L25.5396 36.9214C25.1232 36.9214 24.7068 36.9908 24.2904 37.1296 24.221 36.158 23.8046 35.2558 23.1106 34.6312 22.486 34.076 21.7226 33.729 20.8897 33.7984L20.8897 33.7984C19.9181 33.7984 18.9465 34.2148 18.2525 34.9782L16.4481 37.0602 16.3787 36.9908 11.6594 31.5081 17.6973 21.5144C19.2241 22.2778 20.9591 22.6248 22.6942 22.5554 24.0822 22.5554 25.4702 22.4166 26.7194 22.2778 26.8582 22.2778 26.997 22.2778 27.1358 22.2778 27.7605 22.2778 28.3851 22.3472 28.9403 22.5554L25.1232 27.0664C24.3598 27.8993 24.0128 29.0097 24.0822 30.1201 24.1516 31.2305 24.7068 32.2021 25.5396 32.9655L25.5396 32.9655 25.5396 32.9655C26.303 33.5901 27.2746 33.9372 28.2463 33.9372 28.3851 33.9372 28.4545 33.9372 28.5933 33.9372 29.7037 33.8678 30.7447 33.3125 31.4387 32.4797L36.158 27.0664 36.158 27.0664 36.9214 27.7605 48.095 37.3378C48.5808 37.7542 48.8584 38.4482 48.8584 39.0728 48.8584 39.1422 48.8584 39.3504 48.8584 39.3504 48.9972 40.8079 47.8868 42.0571 46.4294 42.1959 46.4294 42.1959 46.4294 42.1959 46.4294 42.1959ZM49.83 37.1296C49.6218 36.7826 49.3442 36.505 49.0666 36.2274L36.0886 25.0538 30.3977 31.5775C29.9119 32.1327 29.2873 32.4797 28.5239 32.5491 28.4545 32.5491 28.3851 32.5491 28.3157 32.5491 27.6217 32.5491 26.997 32.2715 26.4418 31.8551 25.262 30.8835 25.1232 29.2179 26.0948 28.0381 26.0948 28.0381 26.1642 27.9687 26.1642 27.9687L31.6469 21.7226C32.2021 21.0979 32.9655 20.8203 33.729 20.8203 33.7984 20.8203 33.8678 20.8203 34.0066 20.8203 34.1454 20.8203 34.2148 20.8897 34.3536 20.8897 37.546 21.5144 40.4609 22.6248 43.8615 22.6248 45.5965 22.6248 47.3316 22.3472 48.9278 21.7226L52.9531 28.2463 54.8269 31.3693 49.83 37.1296ZM58.0887 31.5081C57.8805 31.6469 57.6029 31.7163 57.3947 31.7163 57.0477 31.7163 56.7007 31.5775 56.4231 31.2999L56.0067 30.6059 54.1329 27.5522 49.7606 20.3345C49.3442 19.7099 49.5524 18.9465 50.1076 18.5301 50.177 18.5301 50.177 18.4607 50.2464 18.4607L55.5903 15.1988 63.4326 28.2463 58.0887 31.5081Z" stroke="#000000" stroke-width="0.925346" transform="matrix(1.01081 0 0 1 669.327 233.687)"/></g></g></g></svg>