<svg width="80" height="81" xmlns="http://www.w3.org/2000/svg" xmlns:xlink="http://www.w3.org/1999/xlink" xml:space="preserve" overflow="hidden"><g transform="translate(-603 -165)"><g><g><path d="M42.1572 17.9768 37.0403 9.46385 36.5875 8.69407 35.8177 9.19216 32.3763 11.3204C31.9688 11.5468 31.6518 11.9543 31.516 12.4072 31.4254 12.7241 31.4254 13.0864 31.5613 13.4034 30.6104 13.7203 29.6594 13.9014 28.6632 13.9014 27.3048 13.8562 25.9464 13.6298 24.6332 13.2222 23.9992 13.0411 23.32 12.9053 22.6408 12.7694L22.5502 12.7694 22.5502 12.7694C22.505 12.7694 22.4597 12.7694 22.4597 12.7694L22.3691 12.7694 22.2785 12.7694C22.188 12.7694 22.1427 12.7694 22.0521 12.7694L22.0521 12.7694C21.2823 12.7694 20.5126 13.0864 20.0145 13.675L19.6522 14.0826C19.0635 13.8562 18.4296 13.7203 17.7957 13.7203 17.6598 13.7203 17.5693 13.7203 17.4334 13.7203 17.1617 13.7203 16.9353 13.7656 16.6636 13.7656 16.075 13.8109 15.4863 13.8562 14.8976 13.8562 13.9014 13.9014 12.9053 13.675 11.9996 13.2675 12.0449 12.9958 12.0449 12.7241 11.9996 12.4072 11.8638 11.9543 11.5468 11.5468 11.1393 11.3204L7.74315 9.19216 6.97336 8.69407 6.52055 9.46385 1.31317 17.9768 0.86035 18.7466 1.63014 19.1994 5.11682 21.3276C5.75076 21.7352 6.52055 21.6899 7.10921 21.2371L10.0525 24.6785 10.0978 24.769 10.1884 24.8143 10.1884 24.8143 9.55442 25.5388C8.73935 26.4897 8.82991 27.8935 9.73554 28.7085L9.73554 28.7085 9.73554 28.7085C10.1431 29.0708 10.6412 29.2519 11.1846 29.2519 11.2751 29.2519 11.3657 29.2519 11.4562 29.2519 11.7732 29.2066 12.0449 29.1161 12.3166 28.9349 12.3619 29.4783 12.6336 30.0217 13.0411 30.3839L13.0411 30.3839 13.0411 30.3839C13.4486 30.7462 13.9467 30.9273 14.4901 30.9273 14.5354 30.9273 14.626 30.9273 14.6712 30.9273 14.8976 30.9273 15.1241 30.882 15.3505 30.7915 15.3957 31.2896 15.6221 31.7877 16.0297 32.1046L16.0297 32.1046 16.0297 32.1046C16.3919 32.4216 16.8448 32.6027 17.2976 32.6027 17.3881 32.6027 17.4334 32.6027 17.524 32.6027 17.8409 32.6027 18.1126 32.4669 18.3843 32.3311 18.4749 32.648 18.656 32.965 18.9277 33.1914 19.29 33.5084 19.7428 33.6895 20.2409 33.6442L20.3314 33.6442 20.422 33.6442C20.6937 33.5989 20.9654 33.4631 21.1918 33.3273L21.2371 33.3725 21.871 33.8706 21.9163 33.9159 21.9616 33.9612C22.3691 34.2329 22.8672 34.3687 23.32 34.3687 23.4106 34.3687 23.5011 34.3687 23.5917 34.3687 24.7237 34.2782 25.6294 33.4631 25.9464 32.3763 26.9425 32.1952 27.7576 31.4254 28.0293 30.4292 29.0708 30.2028 29.8859 29.433 30.1123 28.4368 30.1575 28.4368 30.2481 28.4368 30.2934 28.4368 31.7424 28.301 32.8292 27.0331 32.7386 25.5841 32.7386 25.4935 32.7386 25.3577 32.7386 25.2671L33.1008 24.8143 36.2253 21.1918C36.8139 21.6899 37.629 21.6899 38.3082 21.2823L41.7949 19.1541 42.5647 18.7013 42.1572 17.9768ZM5.56964 20.5578 2.08295 18.4296 7.24505 9.91667 10.6865 12.0449C11.0487 12.226 11.2298 12.6788 11.094 13.0411L10.8223 13.4939 6.8828 20.0145 6.61111 20.422C6.47527 20.5578 6.24886 20.6484 6.02245 20.6484 5.88661 20.6937 5.70548 20.6484 5.56964 20.5578ZM11.3657 28.3463C11.3204 28.3463 11.2751 28.3463 11.2298 28.3463 10.5053 28.3463 9.91667 27.7123 9.91667 26.9878 9.91667 26.6709 10.0525 26.3539 10.2336 26.1275L12.6336 23.4106C12.9053 23.1389 13.2675 22.9578 13.675 22.9578 13.992 22.9578 14.309 23.0936 14.5354 23.2747 15.0788 23.7728 15.1693 24.6332 14.6712 25.1766L12.2713 27.8935C12.0449 28.1651 11.7279 28.301 11.3657 28.3463ZM14.7165 30.067C14.6712 30.067 14.626 30.067 14.5807 30.067 13.8562 30.067 13.2675 29.433 13.2675 28.7085 13.2675 28.3916 13.4034 28.0746 13.5845 27.8482L15.6674 25.4483C15.9391 25.1766 16.3014 24.9954 16.7089 24.9954 17.0259 24.9954 17.3428 25.1313 17.5693 25.3124 18.1126 25.8105 18.2032 26.6709 17.7051 27.2142L15.6221 29.6142C15.3957 29.8859 15.0788 30.067 14.7165 30.067L14.7165 30.067ZM17.5693 31.7424C17.524 31.7424 17.4787 31.7424 17.4334 31.7424 17.1617 31.7424 16.9353 31.6518 16.7089 31.4707 16.2561 31.0632 16.2108 30.3387 16.6183 29.8859L18.7013 27.4859C18.9277 27.2595 19.2447 27.1237 19.5616 27.1237 19.8333 27.1237 20.105 27.2142 20.2862 27.3954 20.739 27.8029 20.7843 28.5274 20.3767 28.9802L18.2938 31.3801C18.1126 31.6066 17.8409 31.7424 17.5693 31.7424L17.5693 31.7424ZM20.3314 32.8292C20.105 32.8292 19.8333 32.7839 19.6522 32.6027 19.29 32.2858 19.2447 31.6971 19.5616 31.3349L21.3276 29.2972C21.5088 29.1161 21.7352 28.9802 22.0069 28.9802 22.2333 28.9802 22.4144 29.0708 22.5955 29.2066 22.9578 29.5236 23.003 30.1123 22.6861 30.4745L20.9201 32.5122C20.7843 32.6933 20.5578 32.7839 20.3314 32.8292L20.3314 32.8292ZM30.2934 27.5312C30.2481 27.5312 30.1575 27.5312 30.1123 27.5312 29.8406 27.5312 29.5689 27.4406 29.3425 27.3501 29.3425 27.4406 29.3878 27.5312 29.3878 27.6218 29.4783 28.618 28.7538 29.4783 27.7576 29.5689 27.7576 29.5689 27.7576 29.5689 27.7576 29.5689 27.6218 29.5689 27.4406 29.5689 27.3048 29.5236L27.3048 29.5689C27.3954 30.5651 26.6709 31.4254 25.6747 31.516 25.6747 31.516 25.6747 31.516 25.6747 31.516 25.5388 31.516 25.3577 31.516 25.2218 31.4707L25.2218 31.516C25.3124 32.5122 24.5879 33.3725 23.5917 33.4631 23.5917 33.4631 23.5917 33.4631 23.5917 33.4631 23.5464 33.4631 23.5011 33.4631 23.4559 33.4631 23.1389 33.4631 22.8219 33.3725 22.505 33.1914L21.9163 32.7386 23.3653 31.0632C23.9992 30.2934 23.9087 29.1613 23.1842 28.5274 22.8672 28.2557 22.4597 28.0746 22.0069 28.0746 21.871 28.0746 21.6899 28.0746 21.554 28.1199 21.5088 27.5765 21.2823 27.0784 20.8748 26.7161 20.5126 26.3992 20.0145 26.218 19.5164 26.218L19.5164 26.218C19.29 26.218 19.1088 26.2633 18.8824 26.3086 18.8824 25.6747 18.6107 25.086 18.1126 24.6332 17.7051 24.2709 17.207 24.0445 16.6636 24.0898L16.6636 24.0898C16.3919 24.0898 16.1202 24.1351 15.8486 24.2257 15.8033 23.5917 15.5316 23.003 15.0788 22.5955 14.6712 22.2333 14.1731 22.0069 13.6298 22.0521L13.6298 22.0521C12.9958 22.0521 12.3619 22.3238 11.9091 22.8219L10.7317 24.1804 10.6865 24.1351 7.60731 20.5578 11.5468 14.0373C12.543 14.5354 13.675 14.7618 14.8071 14.7165 15.7127 14.7165 16.6183 14.626 17.4334 14.5354 17.524 14.5354 17.6145 14.5354 17.7051 14.5354 18.1126 14.5354 18.5202 14.5807 18.8824 14.7165L16.3919 17.6598C15.8938 18.2032 15.6674 18.9277 15.7127 19.6522 15.758 20.3767 16.1202 21.0107 16.6636 21.5088L16.6636 21.5088 16.6636 21.5088C17.1617 21.9163 17.7957 22.1427 18.4296 22.1427 18.5202 22.1427 18.5655 22.1427 18.656 22.1427 19.3805 22.0974 20.0597 21.7352 20.5126 21.1918L23.5917 17.6598 23.5917 17.6598 24.0898 18.1126 31.3801 24.3615C31.6971 24.6332 31.8782 25.086 31.8782 25.4935 31.8782 25.5388 31.8782 25.6747 31.8782 25.6747 31.9688 26.6256 31.2443 27.4406 30.2934 27.5312 30.2934 27.5312 30.2934 27.5312 30.2934 27.5312ZM32.5122 24.2257C32.3763 23.9992 32.1952 23.8181 32.0141 23.637L23.5464 16.3467 19.8333 20.6031C19.5164 20.9654 19.1088 21.1918 18.6107 21.2371 18.5655 21.2371 18.5202 21.2371 18.4749 21.2371 18.0221 21.2371 17.6145 21.0559 17.2523 20.7843 16.4825 20.1503 16.3919 19.0635 17.0259 18.2938 17.0259 18.2938 17.0712 18.2485 17.0712 18.2485L20.6484 14.1731C21.0107 13.7656 21.5088 13.5845 22.0069 13.5845 22.0521 13.5845 22.0974 13.5845 22.188 13.5845 22.2785 13.5845 22.3238 13.6298 22.4144 13.6298 24.4973 14.0373 26.3992 14.7618 28.618 14.7618 29.75 14.7618 30.882 14.5807 31.9235 14.1731L34.5499 18.4296 35.7725 20.4673 32.5122 24.2257ZM37.9007 20.5578C37.7648 20.6484 37.5837 20.6937 37.4479 20.6937 37.2215 20.6937 36.9951 20.6031 36.8139 20.422L36.5422 19.9692 35.3196 17.9768 32.4669 13.2675C32.1952 12.86 32.3311 12.3619 32.6933 12.0902 32.7386 12.0902 32.7386 12.0449 32.7839 12.0449L36.2706 9.91667 41.3874 18.4296 37.9007 20.5578Z" stroke="#000000" stroke-width="1.10051" fill="#FFFFFF" transform="matrix(1.00578 0 0 1 621.139 183.765)"/></g></g></g></svg>