<svg width="1332" height="643" xmlns="http://www.w3.org/2000/svg" xmlns:xlink="http://www.w3.org/1999/xlink" xml:space="preserve" overflow="hidden"><g transform="translate(-1643 -682)"><text font-family="Aptos Serif,Aptos Serif_MSFontService,sans-serif" font-weight="700" font-size="110" transform="matrix(1 0 0 1 2277.7 875)">RF Systems </text><text font-family="Aptos Serif,Aptos Serif_MSFontService,sans-serif" font-weight="700" font-size="110" transform="matrix(1 0 0 1 2287.09 1007)">Integration </text><text font-family="Aptos Serif,Aptos Serif_MSFontService,sans-serif" font-weight="700" font-size="110" transform="matrix(1 0 0 1 2289.68 1139)">Laboratory</text><text font-family="Aptos Serif,Aptos Serif_MSFontService,sans-serif" font-weight="700" font-size="83" transform="matrix(1 0 0 1 2383.69 1245)">-</text><text font-family="Aptos Serif,Aptos Serif_MSFontService,sans-serif" font-weight="700" font-size="83" transform="matrix(1 0 0 1 2435.25 1245)">HKSUT </text><text font-family="Aptos Serif,Aptos Serif_MSFontService,sans-serif" font-weight="700" font-size="83" transform="matrix(1 0 0 1 2744.05 1245)">-</text><path d="M1743.24 1241.54C1738.99 1214.46 1755.22 1123.34 1771.27 1077.68 1787.31 1032.02 1814.69 997.176 1839.51 967.589 1864.33 938.001 1888.27 918.713 1920.2 900.153 1952.12 881.593 2026.04 855.322 2031.03 856.228 2036.02 857.135 1973.52 883.227 1950.13 905.592 1926.74 927.957 1905.28 961.819 1890.68 990.418 1876.07 1019.02 1867.12 1050.71 1862.49 1077.19 1857.87 1103.66 1859.29 1123.48 1862.93 1149.28 1866.57 1175.08 1874.47 1212.47 1881.19 1229.57 1860.16 1242.36 1764.05 1249.86 1743.24 1241.54Z" stroke="#000000" stroke-width="10.3125" stroke-miterlimit="8" fill="#C00000" fill-rule="evenodd"/><path d="M1794.5 1027.5C1794.5 906.55 1892.77 808.5 2014 808.5 2135.23 808.5 2233.5 906.55 2233.5 1027.5 2233.5 1148.45 2135.23 1246.5 2014 1246.5 1892.77 1246.5 1794.5 1148.45 1794.5 1027.5Z" stroke="#000000" stroke-width="6.875" stroke-linejoin="round" stroke-miterlimit="10" fill="none" fill-rule="evenodd"/><path d="M1941.5 1027.5C1941.5 946.866 2006.87 881.5 2087.5 881.5 2168.13 881.5 2233.5 946.866 2233.5 1027.5 2233.5 1108.13 2168.13 1173.5 2087.5 1173.5 2006.87 1173.5 1941.5 1108.13 1941.5 1027.5Z" stroke="#000000" stroke-width="6.875" stroke-linejoin="round" stroke-miterlimit="10" fill="none" fill-rule="evenodd"/><path d="M2087.5 1027.5C2087.5 987.183 2120.18 954.5 2160.5 954.5 2200.82 954.5 2233.5 987.183 2233.5 1027.5 2233.5 1067.82 2200.82 1100.5 2160.5 1100.5 2120.18 1100.5 2087.5 1067.82 2087.5 1027.5Z" stroke="#000000" stroke-width="6.875" stroke-linejoin="round" stroke-miterlimit="10" fill="none" fill-rule="evenodd"/><path d="M1648 1027.5C1648 865.957 1778.96 735 1940.5 735 2102.04 735 2233 865.957 2233 1027.5 2233 1189.04 2102.04 1320 1940.5 1320 1778.96 1320 1648 1189.04 1648 1027.5Z" stroke="#000000" stroke-width="10.3125" stroke-linejoin="round" stroke-miterlimit="10" fill="none" fill-rule="evenodd"/><path d="M2230.5 1027.5C2069.23 1027.5 1938.5 896.767 1938.5 735.5" stroke="#000000" stroke-width="6.875" stroke-linejoin="round" stroke-miterlimit="10" fill="none" fill-rule="evenodd"/><path d="M2234.5 1028.3C2072.54 1041.12 1904.67 1002.84 1791.5 780.5" stroke="#000000" stroke-width="6.875" stroke-linejoin="round" stroke-miterlimit="10" fill="none" fill-rule="evenodd"/><path d="M2234.5 1030.5C2031.44 1030.08 1818.3 1017.76 1675.5 906.5" stroke="#000000" stroke-width="6.875" stroke-linejoin="round" stroke-miterlimit="10" fill="none" fill-rule="evenodd"/><path d="M2230.58 1029.7 1648.5 1027.5" stroke="#000000" stroke-width="6.875" stroke-miterlimit="8" fill="none" fill-rule="evenodd"/><path d="M2229.5 1031.5C2142.79 1031.5 2072.5 911.96 2072.5 764.5" stroke="#000000" stroke-width="6.875" stroke-linejoin="round" stroke-miterlimit="10" fill="none" fill-rule="evenodd"/><path d="M292 292C130.733 292 0 161.267 0 0" stroke="#000000" stroke-width="6.875" stroke-linejoin="round" stroke-miterlimit="10" fill="none" fill-rule="evenodd" transform="matrix(1 0 0 -1 1936.5 1319.5)"/><path d="M444 246.812C281.679 259.574 113.422 221.451 0 0" stroke="#000000" stroke-width="6.875" stroke-linejoin="round" stroke-miterlimit="10" fill="none" fill-rule="evenodd" transform="matrix(1 0 0 -1 1791.5 1274.5)"/><path d="M559 124C355.941 123.579 142.8 111.258 0 0" stroke="#000000" stroke-width="6.875" stroke-linejoin="round" stroke-miterlimit="10" fill="none" fill-rule="evenodd" transform="matrix(1 0 0 -1 1676.5 1149.5)"/><path d="M156 266C69.8435 266 0 146.908 0 0" stroke="#000000" stroke-width="6.875" stroke-linejoin="round" stroke-miterlimit="10" fill="none" fill-rule="evenodd" transform="matrix(1 0 0 -1 2067.5 1292.5)"/><path d="M1712.55 687.728C1707.53 691.831 1740.76 744.745 1748.86 767.936 1756.95 791.126 1760.5 798.969 1761.1 826.87 1761.7 854.771 1754.52 877.053 1741.85 918.439 1729.17 959.824 1690.78 1029.26 1685.05 1075.18 1679.31 1121.1 1689.49 1160.61 1707.45 1193.95 1725.41 1227.28 1773.26 1270.34 1792.81 1275.18 1802.3 1257.21 1811.79 1240.53 1823.42 1222.55 1833.89 1204.28 1843.93 1189.88 1855.25 1174.19 1840.32 1158.52 1829.91 1149.8 1820.55 1130.58 1811.19 1111.35 1798.71 1087.54 1799.08 1058.84 1799.45 1030.14 1818 989.418 1822.75 955.783 1827.51 922.147 1830.34 883.868 1827.59 857.029 1824.84 830.19 1819.43 812.59 1811.33 793.637 1803.23 774.685 1795.45 760.965 1778.99 743.314 1762.53 725.662 1717.58 683.624 1712.55 687.728Z" stroke="#000000" stroke-width="10.3125" stroke-miterlimit="8" fill="#C00000" fill-rule="evenodd"/><path d="M1932.97 1317.61C1928.84 1304.39 1938.96 1249.98 1943.82 1233.48 1958.38 1239.3 2002.5 1244.02 2034.91 1238.77 2067.32 1233.53 2110.3 1224.44 2138.28 1202 2166.26 1179.56 2190.3 1146.68 2205.38 1117.01 2220.47 1087.34 2227.47 1024.58 2228.8 1024 2230.13 1023.43 2224.66 1090.47 2217.23 1119.16 2209.81 1147.84 2196.84 1163.01 2184.25 1183.26 2171.67 1203.5 2160.7 1222.92 2141.71 1240.63 2122.72 1258.35 2093.02 1277.69 2070.32 1289.57 2047.62 1301.45 2024.44 1307.31 2005.5 1311.89 1983.89 1316.56 1946.93 1321.46 1932.97 1317.61Z" stroke="#000000" stroke-width="10.3125" stroke-miterlimit="8" fill="#C00000" fill-rule="evenodd"/><path d="M1792 1278.78C1798.79 1251.96 1852 1173.35 1886.52 1136.97 1921.03 1100.6 1962.4 1078.61 1999.09 1060.54 2035.79 1042.46 2068.07 1033.64 2106.68 1028.54 2145.3 1023.43 2226.2 1027.16 2230.78 1029.91 2235.37 1032.65 2165.89 1033.11 2134.2 1045.01 2102.51 1056.9 2066.78 1080.24 2040.63 1101.28 2014.49 1122.33 1992.7 1148.41 1977.33 1171.29 1961.97 1194.17 1955.32 1213.15 1948.44 1238.55 1941.56 1263.94 1935.34 1301.17 1935.05 1319.65 1908.96 1323.53 1809.29 1294.45 1792 1278.78Z" stroke="#000000" stroke-width="10.3125" stroke-miterlimit="8" fill="#C00000" fill-rule="evenodd"/></g></svg>