<svg width="126" height="114" xmlns="http://www.w3.org/2000/svg" xmlns:xlink="http://www.w3.org/1999/xlink" xml:space="preserve" overflow="hidden"><g transform="translate(-182 -210)"><g><g><path d="M32.0478 27.8926C31.3405 27.1854 30.2796 26.8317 29.3071 27.0527L27.318 25.1078C29.0861 22.8092 30.0586 19.9801 30.0586 17.0627 30.1028 9.68064 24.1353 3.71312 16.7975 3.66892 9.45962 3.62471 3.4921 9.59223 3.4479 16.9301 3.40369 24.2679 9.37121 30.2354 16.709 30.2796 19.6265 30.2796 22.4997 29.3071 24.8426 27.539L26.7875 29.484C26.6107 30.5006 26.9201 31.5173 27.6274 32.2688L33.1529 37.7943C34.3464 38.9878 36.3355 38.9878 37.529 37.7943 38.7226 36.6008 38.7226 34.6116 37.529 33.4181L32.0478 27.8926ZM16.7975 27.6274C10.9183 27.6274 6.18854 22.8976 6.18854 17.0185 6.18854 11.1394 10.9183 6.40955 16.7975 6.40955 22.6766 6.40955 27.4064 11.1394 27.4064 17.0185 27.4064 22.8534 22.6324 27.6274 16.7975 27.6274Z" transform="matrix(1 0 0 1.00386 223.782 245.7)"/><path d="M26.3013 16.3554 23.7817 16.3554C23.5606 16.3996 23.3396 16.5322 23.207 16.709L21.5273 18.5214 20.1127 13.6148C19.9801 13.2169 19.5381 12.9517 19.1403 13.0843 18.9192 13.1727 18.6982 13.3054 18.6098 13.5706L15.9576 20.599 14.1452 10.8741C14.0568 10.4321 13.659 10.1669 13.2611 10.2553 12.9959 10.2995 12.7749 10.5205 12.6423 10.7857L10.7415 16.3554 7.29363 16.3554 7.29363 18.1236 11.3162 18.1236C11.6698 18.0794 11.9792 17.8141 12.0676 17.4605L13.1727 14.101 14.9409 23.6048C14.9851 23.9585 15.2945 24.2237 15.6482 24.2237L15.7366 24.2237C16.046 24.2237 16.3554 24.0469 16.488 23.7375L19.3171 16.3112 20.4664 20.2896C20.599 20.6874 20.9968 20.9526 21.4389 20.82 21.5715 20.7758 21.7041 20.6874 21.7925 20.599L24.1795 18.1236 26.3455 18.1236 26.3455 16.3554Z" transform="matrix(1 0 0 1.00386 223.782 245.7)"/></g></g></g></svg>