<svg width="86" height="88" xmlns="http://www.w3.org/2000/svg" xmlns:xlink="http://www.w3.org/1999/xlink" xml:space="preserve" overflow="hidden"><g transform="translate(-278 -220)"><g><g><path d="M32.14 27.9729C31.4307 27.2636 30.3668 26.909 29.3915 27.1306L27.3966 25.18C29.1698 22.8748 30.1451 20.0376 30.1451 17.1118 30.1895 9.7085 24.2048 3.72381 16.8458 3.67948 9.48685 3.63515 3.50215 9.61984 3.45782 16.9788 3.41349 24.3378 9.39819 30.3225 16.7571 30.3668 19.683 30.3668 22.5645 29.3915 24.9141 27.6183L26.8646 29.5688C26.6873 30.5884 26.9976 31.6081 27.7069 32.3617L33.2483 37.9031C34.4452 39.1 36.4401 39.1 37.6371 37.9031 38.834 36.7061 38.834 34.7112 37.6371 33.5143L32.14 27.9729ZM16.8458 27.7069C10.9498 27.7069 6.20635 22.9635 6.20635 17.0675 6.20635 11.1714 10.9498 6.428 16.8458 6.428 22.7418 6.428 27.4853 11.1714 27.4853 17.0675 27.4853 22.9192 22.6975 27.7069 16.8458 27.7069Z" transform="matrix(1 0 0 1.00454 299.721 242.624)"/><path d="M26.377 16.4025 23.8501 16.4025C23.6285 16.4468 23.4068 16.5798 23.2738 16.7571L21.5892 18.5747 20.1706 13.654C20.0376 13.255 19.5943 12.989 19.1954 13.122 18.9737 13.2107 18.752 13.3437 18.6634 13.6096L16.0035 20.6583 14.1859 10.9054C14.0973 10.4621 13.6983 10.1961 13.2993 10.2848 13.0333 10.3291 12.8117 10.5508 12.6787 10.8168L10.7724 16.4025 7.31463 16.4025 7.31463 18.1757 11.3488 18.1757C11.7034 18.1314 12.0137 17.8654 12.1024 17.5108L13.2107 14.1416 14.9839 23.6728C15.0282 24.0274 15.3385 24.2934 15.6932 24.2934L15.7819 24.2934C16.0922 24.2934 16.4025 24.1161 16.5355 23.8058L19.3727 16.3582 20.5253 20.348C20.6583 20.7469 21.0573 21.0129 21.5006 20.8799 21.6336 20.8356 21.7666 20.7469 21.8552 20.6583L24.2491 18.1757 26.4213 18.1757 26.4213 16.4025Z" transform="matrix(1 0 0 1.00454 299.721 242.624)"/></g></g></g></svg>