<svg width="56" height="56" xmlns="http://www.w3.org/2000/svg" xmlns:xlink="http://www.w3.org/1999/xlink" xml:space="preserve" overflow="hidden"><g transform="translate(-356 -239)"><g><g><path d="M380.44 277.983C379.614 277.977 378.927 277.344 378.856 276.52 378.844 276.369 378.956 276.237 379.107 276.225 379.115 276.224 379.122 276.224 379.13 276.224L381.749 276.224C381.9 276.224 382.024 276.346 382.024 276.497 382.024 276.505 382.024 276.512 382.023 276.52 381.953 277.344 381.267 277.978 380.44 277.983ZM379.472 276.772C379.679 277.307 380.28 277.572 380.815 277.364 381.086 277.259 381.301 277.044 381.407 276.772Z" stroke="#000000" stroke-width="0.701596"/><path d="M383.49 274.657 377.461 274.657C377.31 274.657 377.187 274.535 377.187 274.383 377.187 274.232 377.31 274.109 377.461 274.109L383.49 274.109C383.642 274.109 383.764 274.232 383.764 274.383 383.764 274.535 383.642 274.657 383.49 274.657Z" stroke="#000000" stroke-width="0.701596"/><path d="M383.49 272.465 377.461 272.465C377.31 272.465 377.187 272.342 377.187 272.191 377.187 272.039 377.31 271.917 377.461 271.917L383.49 271.917C383.642 271.917 383.764 272.039 383.764 272.191 383.764 272.342 383.642 272.465 383.49 272.465Z" stroke="#000000" stroke-width="0.701596"/><path d="M396.059 263.739 390.34 263.739 385.971 265.923 385.971 265.923C385.759 266.312 385.503 266.676 385.208 267.008 384.6 267.673 383.955 268.899 383.626 269.571 383.587 269.649 383.507 269.698 383.42 269.698L377.444 269.698C377.359 269.695 377.281 269.647 377.239 269.573 376.908 268.898 376.262 267.667 375.659 267.012 375.192 266.486 374.822 265.88 374.568 265.224 374.301 264.528 374.153 263.792 374.13 263.046L374.13 262.825C374.128 259.343 376.949 256.52 380.431 256.519 383.912 256.517 386.735 259.339 386.736 262.82L386.736 263.037C386.733 263.135 386.728 263.232 386.721 263.329 386.713 263.48 386.83 263.609 386.981 263.616 387.127 263.624 387.253 263.515 387.268 263.369 387.275 263.265 387.281 263.16 387.284 263.046L387.284 262.815C387.283 259.031 384.214 255.964 380.43 255.966 376.646 255.967 373.58 259.036 373.581 262.82L373.581 263.054C373.606 263.864 373.767 264.664 374.058 265.42 374.336 266.139 374.741 266.802 375.253 267.378 375.834 268.008 376.492 269.291 376.749 269.814 376.88 270.077 377.149 270.244 377.443 270.245L383.421 270.245C383.716 270.244 383.985 270.077 384.117 269.813 384.372 269.292 385.029 268.015 385.615 267.374 385.924 267.024 386.195 266.643 386.422 266.235L386.422 266.235 386.46 266.168 390.34 268.124 396.059 268.124 396.059 267.576 391.827 267.576C392.736 266.782 392.829 265.403 392.036 264.495 391.971 264.421 391.901 264.351 391.827 264.287L396.059 264.287ZM392.026 265.931C392.025 266.807 391.337 267.529 390.462 267.571L388.004 266.334 388.004 265.52 390.462 264.292C391.336 264.334 392.025 265.055 392.026 265.931Z" stroke="#000000" stroke-width="0.701596"/></g></g></g></svg>