<svg width="44" height="45" xmlns="http://www.w3.org/2000/svg" xmlns:xlink="http://www.w3.org/1999/xlink" xml:space="preserve" overflow="hidden"><g transform="translate(-264 -508)"><path d="M33.2292 28.9208C32.4958 28.1875 31.3958 27.8208 30.3875 28.05L28.325 26.0333C30.1583 23.65 31.1667 20.7167 31.1667 17.6917 31.2125 10.0375 25.025 3.85 17.4167 3.80417 9.80833 3.75833 3.62083 9.94583 3.575 17.5542 3.52917 25.1625 9.71667 31.35 17.325 31.3958 20.35 31.3958 23.3292 30.3875 25.7583 28.5542L27.775 30.5708C27.5917 31.625 27.9125 32.6792 28.6458 33.4583L34.375 39.1875C35.6125 40.425 37.675 40.425 38.9125 39.1875 40.15 37.95 40.15 35.8875 38.9125 34.65L33.2292 28.9208ZM17.4167 28.6458C11.3208 28.6458 6.41667 23.7417 6.41667 17.6458 6.41667 11.55 11.3208 6.64583 17.4167 6.64583 23.5125 6.64583 28.4167 11.55 28.4167 17.6458 28.4167 23.6958 23.4667 28.6458 17.4167 28.6458Z" transform="matrix(1 0 0 1.02273 264 508)"/><path d="M27.2708 16.9583 24.6583 16.9583C24.4292 17.0042 24.2 17.1417 24.0625 17.325L22.3208 19.2042 20.8542 14.1167C20.7167 13.7042 20.2583 13.4292 19.8458 13.5667 19.6167 13.6583 19.3875 13.7958 19.2958 14.0708L16.5458 21.3583 14.6667 11.275C14.575 10.8167 14.1625 10.5417 13.75 10.6333 13.475 10.6792 13.2458 10.9083 13.1083 11.1833L11.1375 16.9583 7.5625 16.9583 7.5625 18.7917 11.7333 18.7917C12.1 18.7458 12.4208 18.4708 12.5125 18.1042L13.6583 14.6208 15.4917 24.475C15.5375 24.8417 15.8583 25.1167 16.225 25.1167L16.3167 25.1167C16.6375 25.1167 16.9583 24.9333 17.0958 24.6125L20.0292 16.9125 21.2208 21.0375C21.3583 21.45 21.7708 21.725 22.2292 21.5875 22.3667 21.5417 22.5042 21.45 22.5958 21.3583L25.0708 18.7917 27.3167 18.7917 27.3167 16.9583Z" transform="matrix(1 0 0 1.02273 264 508)"/></g></svg>