<svg width="76" height="76" xmlns="http://www.w3.org/2000/svg" xmlns:xlink="http://www.w3.org/1999/xlink" xml:space="preserve" overflow="hidden"><g transform="translate(-207 -229)"><path d="M264.396 278.954C263.129 277.688 261.229 277.054 259.487 277.45L255.925 273.967C259.092 269.85 260.833 264.783 260.833 259.558 260.913 246.337 250.225 235.65 237.083 235.571 223.942 235.492 213.254 246.179 213.175 259.321 213.096 272.462 223.783 283.15 236.925 283.229 242.15 283.229 247.296 281.487 251.492 278.321L254.975 281.804C254.658 283.625 255.212 285.446 256.479 286.792L266.375 296.688C268.513 298.825 272.075 298.825 274.212 296.688 276.35 294.55 276.35 290.987 274.212 288.85L264.396 278.954ZM237.083 278.479C226.554 278.479 218.083 270.008 218.083 259.479 218.083 248.95 226.554 240.479 237.083 240.479 247.613 240.479 256.083 248.95 256.083 259.479 256.083 269.929 247.533 278.479 237.083 278.479Z"/><path d="M254.104 258.292 249.592 258.292C249.196 258.371 248.8 258.608 248.562 258.925L245.554 262.171 243.021 253.383C242.783 252.671 241.992 252.196 241.279 252.433 240.883 252.592 240.488 252.829 240.329 253.304L235.579 265.892 232.333 248.475C232.175 247.683 231.462 247.208 230.75 247.367 230.275 247.446 229.879 247.842 229.642 248.317L226.238 258.292 220.062 258.292 220.062 261.458 227.267 261.458C227.9 261.379 228.454 260.904 228.613 260.271L230.592 254.254 233.758 271.275C233.837 271.908 234.392 272.383 235.025 272.383L235.183 272.383C235.738 272.383 236.292 272.067 236.529 271.513L241.596 258.212 243.654 265.337C243.892 266.05 244.604 266.525 245.396 266.288 245.633 266.208 245.871 266.05 246.029 265.892L250.304 261.458 254.183 261.458 254.183 258.292Z"/></g></svg>