<svg width="86" height="87" xmlns="http://www.w3.org/2000/svg" xmlns:xlink="http://www.w3.org/1999/xlink" xml:space="preserve" overflow="hidden"><g transform="translate(-278 -220)"><g><g><path d="M32.2996 28.1118C31.5867 27.3989 30.5175 27.0425 29.5374 27.2653L27.5326 25.305C29.3146 22.9884 30.2948 20.1371 30.2948 17.1967 30.3393 9.7567 24.3249 3.74229 16.9294 3.69774 9.53394 3.65319 3.51954 9.66759 3.47499 17.0631 3.43044 24.4586 9.44484 30.473 16.8403 30.5175 19.7807 30.5175 22.6765 29.5374 25.0377 27.7553L26.998 29.7156C26.8198 30.7403 27.1316 31.765 27.8445 32.5223L33.4133 38.0912C34.6162 39.2941 36.621 39.2941 37.8239 38.0912 39.0268 36.8883 39.0268 34.8835 37.8239 33.6806L32.2996 28.1118ZM16.9294 27.8445C11.0041 27.8445 6.23716 23.0775 6.23716 17.1522 6.23716 11.2269 11.0041 6.45991 16.9294 6.45991 22.8547 6.45991 27.6217 11.2269 27.6217 17.1522 27.6217 23.0329 22.8102 27.8445 16.9294 27.8445Z" transform="matrix(1.00094 0 0 1 299.595 242.115)"/><path d="M26.5079 16.4839 23.9685 16.4839C23.7457 16.5285 23.523 16.6621 23.3893 16.8403L21.6964 18.6669 20.2708 13.7217C20.1371 13.3208 19.6916 13.0535 19.2906 13.1871 19.0679 13.2762 18.8451 13.4099 18.756 13.6772L16.083 20.7608 14.2564 10.9596C14.1673 10.5141 13.7663 10.2468 13.3653 10.3359 13.098 10.3804 12.8753 10.6032 12.7416 10.8705L10.8259 16.4839 7.35093 16.4839 7.35093 18.266 11.4051 18.266C11.7615 18.2214 12.0734 17.9541 12.1625 17.5977L13.2762 14.2118 15.0583 23.7903C15.1028 24.1467 15.4147 24.414 15.7711 24.414L15.8602 24.414C16.1721 24.414 16.4839 24.2358 16.6176 23.924L19.4688 16.4394 20.6272 20.449C20.7608 20.8499 21.1618 21.1172 21.6073 20.9836 21.7409 20.939 21.8746 20.8499 21.9637 20.7608L24.3695 18.266 26.5525 18.266 26.5525 16.4839Z" transform="matrix(1.00094 0 0 1 299.595 242.115)"/></g></g></g></svg>