<svg width="70" height="70" xmlns="http://www.w3.org/2000/svg" xmlns:xlink="http://www.w3.org/1999/xlink" xml:space="preserve" overflow="hidden"><g transform="translate(-291 -211)"><g><g><path d="M322.489 256.834C321.673 256.829 320.996 256.204 320.925 255.392 320.913 255.243 321.024 255.112 321.173 255.1 321.181 255.1 321.188 255.099 321.196 255.099L323.78 255.099C323.929 255.099 324.05 255.219 324.051 255.369 324.051 255.376 324.051 255.384 324.05 255.391 323.981 256.204 323.304 256.829 322.489 256.834ZM321.533 255.64C321.737 256.167 322.331 256.429 322.858 256.224 323.126 256.12 323.338 255.908 323.442 255.64Z" stroke="#000000" stroke-width="0.370772"/><path d="M325.497 253.554 319.549 253.554C319.4 253.554 319.279 253.433 319.279 253.283 319.279 253.134 319.4 253.013 319.549 253.013L325.497 253.013C325.646 253.013 325.768 253.134 325.768 253.283 325.768 253.433 325.646 253.554 325.497 253.554Z" stroke="#000000" stroke-width="0.370772"/><path d="M325.497 251.391 319.549 251.391C319.4 251.391 319.279 251.27 319.279 251.121 319.279 250.971 319.4 250.85 319.549 250.85L325.497 250.85C325.646 250.85 325.768 250.971 325.768 251.121 325.768 251.27 325.646 251.391 325.497 251.391Z" stroke="#000000" stroke-width="0.370772"/><path d="M337.896 242.783 332.254 242.783 327.945 244.938 327.945 244.938C327.735 245.322 327.482 245.681 327.192 246.008 326.592 246.664 325.956 247.874 325.631 248.536 325.592 248.613 325.514 248.662 325.428 248.662L319.533 248.662C319.449 248.659 319.372 248.612 319.331 248.538 319.004 247.872 318.367 246.658 317.772 246.011 317.311 245.493 316.947 244.896 316.696 244.248 316.432 243.561 316.286 242.835 316.263 242.1L316.263 241.881C316.262 238.447 319.045 235.662 322.479 235.661 325.913 235.659 328.698 238.442 328.699 241.876L328.699 242.091C328.696 242.187 328.691 242.283 328.684 242.378 328.677 242.527 328.791 242.655 328.94 242.662 329.085 242.67 329.209 242.562 329.223 242.418 329.231 242.315 329.237 242.212 329.24 242.1L329.24 241.871C329.239 238.138 326.211 235.113 322.479 235.115 318.746 235.116 315.721 238.143 315.722 241.876L315.722 242.107C315.747 242.906 315.906 243.695 316.192 244.442 316.467 245.151 316.866 245.805 317.372 246.373 317.944 246.994 318.594 248.26 318.847 248.776 318.977 249.036 319.241 249.2 319.532 249.202L325.428 249.202C325.72 249.2 325.985 249.035 326.115 248.775 326.367 248.261 327.015 247.001 327.593 246.369 327.898 246.024 328.165 245.647 328.389 245.245L328.389 245.245 328.426 245.179 332.254 247.108 337.896 247.108 337.896 246.568 333.722 246.568C334.617 245.785 334.709 244.425 333.927 243.529 333.863 243.456 333.795 243.387 333.722 243.324L337.896 243.324ZM333.918 244.946C333.917 245.81 333.238 246.521 332.375 246.564L329.95 245.343 329.95 244.54 332.374 243.329C333.237 243.37 333.916 244.081 333.918 244.946Z" stroke="#000000" stroke-width="0.370772"/></g></g></g></svg>