<svg width="102" height="104" xmlns="http://www.w3.org/2000/svg" xmlns:xlink="http://www.w3.org/1999/xlink" xml:space="preserve" overflow="hidden"><g transform="translate(-79 -214)"><g><g><path d="M32.1121 27.9486C31.4035 27.24 30.3404 26.8856 29.366 27.1071L27.3728 25.1582C29.1445 22.855 30.119 20.0203 30.119 17.0969 30.1633 9.70008 24.1838 3.72058 16.8312 3.67629 9.47862 3.63199 3.49912 9.6115 3.45482 16.9641 3.41053 24.3166 9.39003 30.2961 16.7426 30.3404 19.6659 30.3404 22.5449 29.366 24.8924 27.5943L26.8413 29.5432C26.6642 30.5619 26.9742 31.5806 27.6829 32.3336L33.2195 37.8702C34.4154 39.0661 36.4085 39.0661 37.6044 37.8702 38.8003 36.6743 38.8003 34.6811 37.6044 33.4852L32.1121 27.9486ZM16.8312 27.6829C10.9403 27.6829 6.20097 22.9436 6.20097 17.0527 6.20097 11.1617 10.9403 6.42243 16.8312 6.42243 22.7221 6.42243 27.4614 11.1617 27.4614 17.0527 27.4614 22.8993 22.6778 27.6829 16.8312 27.6829Z" transform="matrix(1 0 0 1.00096 108.74 244.719)"/><path d="M26.3541 16.3883 23.8294 16.3883C23.608 16.4326 23.3865 16.5654 23.2536 16.7426L21.5705 18.5586 20.1531 13.6421C20.0203 13.2435 19.5773 12.9777 19.1787 13.1106 18.9572 13.1992 18.7358 13.3321 18.6472 13.5978L15.9896 20.6404 14.1736 10.896C14.085 10.4531 13.6864 10.1873 13.2878 10.2759 13.022 10.3202 12.8006 10.5416 12.6677 10.8074L10.7631 16.3883 7.30828 16.3883 7.30828 18.16 11.3389 18.16C11.6932 18.1157 12.0033 17.8499 12.0919 17.4956L13.1992 14.1293 14.9709 23.6523C15.0152 24.0066 15.3252 24.2724 15.6796 24.2724L15.7682 24.2724C16.0782 24.2724 16.3883 24.0952 16.5211 23.7851L19.3559 16.344 20.5075 20.3303C20.6404 20.7289 21.039 20.9947 21.4819 20.8618 21.6148 20.8175 21.7477 20.7289 21.8363 20.6404L24.2281 18.16 26.3984 18.16 26.3984 16.3883Z" transform="matrix(1 0 0 1.00096 108.74 244.719)"/></g></g></g></svg>