<svg width="150" height="136" xmlns="http://www.w3.org/2000/svg" xmlns:xlink="http://www.w3.org/1999/xlink" xml:space="preserve" overflow="hidden"><g transform="translate(-170 -199)"><g><g><path d="M32.0173 27.8661C31.3107 27.1595 30.2508 26.8062 29.2793 27.027L27.292 25.0839C29.0585 22.7875 30.03 19.9611 30.03 17.0465 30.0742 9.67144 24.1123 3.70959 16.7815 3.66543 9.45063 3.62127 3.48878 9.58311 3.44462 16.914 3.40046 24.2448 9.3623 30.2067 16.6932 30.2508 19.6078 30.2508 22.4784 29.2793 24.8189 27.5128L26.7621 29.4559C26.5854 30.4716 26.8945 31.4874 27.6011 32.2381L33.1214 37.7583C34.3137 38.9507 36.301 38.9507 37.4934 37.7583 38.6857 36.566 38.6857 34.5787 37.4934 33.3863L32.0173 27.8661ZM16.7815 27.6011C10.908 27.6011 6.18265 22.8758 6.18265 17.0023 6.18265 11.1288 10.908 6.40346 16.7815 6.40346 22.655 6.40346 27.3803 11.1288 27.3803 17.0023 27.3803 22.8317 22.6108 27.6011 16.7815 27.6011Z" transform="matrix(1.00451 0 0 1 223.707 245.802)"/><path d="M26.2763 16.3399 23.7591 16.3399C23.5382 16.384 23.3174 16.5165 23.1849 16.6932L21.5068 18.5038 20.0936 13.6018C19.9611 13.2044 19.5195 12.9394 19.1221 13.0719 18.9013 13.1602 18.6804 13.2927 18.5921 13.5577L15.9424 20.5794 14.1318 10.8638C14.0435 10.4222 13.646 10.1572 13.2485 10.2455 12.9836 10.2897 12.7628 10.5105 12.6303 10.7755L10.7313 16.3399 7.2867 16.3399 7.2867 18.1063 11.3054 18.1063C11.6587 18.0622 11.9679 17.7972 12.0562 17.4439L13.1602 14.0876 14.9267 23.5824C14.9709 23.9357 15.28 24.2007 15.6333 24.2007L15.7216 24.2007C16.0307 24.2007 16.3399 24.024 16.4724 23.7149L19.2987 16.2957 20.4469 20.2703C20.5794 20.6677 20.9769 20.9327 21.4185 20.8002 21.551 20.7561 21.6834 20.6677 21.7718 20.5794L24.1565 18.1063 26.3204 18.1063 26.3204 16.3399Z" transform="matrix(1.00451 0 0 1 223.707 245.802)"/></g></g></g></svg>