<svg width="82" height="78" xmlns="http://www.w3.org/2000/svg" xmlns:xlink="http://www.w3.org/1999/xlink" xml:space="preserve" overflow="hidden"><g transform="translate(-204 -228)"><g><g><path d="M32.0756 27.9168C31.3677 27.209 30.3059 26.855 29.3326 27.0762L27.3417 25.1296C29.1114 22.829 30.0847 19.9975 30.0847 17.0775 30.1289 9.68904 24.1562 3.71635 16.812 3.6721 9.46783 3.62786 3.49513 9.60056 3.45089 16.9448 3.40665 24.289 9.37935 30.2617 16.7236 30.3059 19.6435 30.3059 22.5193 29.3326 24.8641 27.5629L26.8108 29.5096C26.6338 30.5271 26.9435 31.5447 27.6514 32.2968L33.1817 37.8271C34.3762 39.0216 36.3671 39.0216 37.5616 37.8271 38.7562 36.6326 38.7562 34.6417 37.5616 33.4471L32.0756 27.9168ZM16.812 27.6514C10.9278 27.6514 6.19391 22.9175 6.19391 17.0333 6.19391 11.149 10.9278 6.41512 16.812 6.41512 22.6963 6.41512 27.4302 11.149 27.4302 17.0333 27.4302 22.8732 22.652 27.6514 16.812 27.6514Z" transform="matrix(1 0 0 1.01523 223.764 245.44)"/><path d="M26.3241 16.3696 23.8023 16.3696C23.5811 16.4139 23.3599 16.5466 23.2272 16.7236L21.546 18.5375 20.1302 13.6266C19.9975 13.2284 19.5551 12.963 19.1569 13.0957 18.9357 13.1842 18.7145 13.3169 18.626 13.5824L15.9714 20.6169 14.1575 10.8836C14.069 10.4412 13.6708 10.1757 13.2727 10.2642 13.0072 10.3084 12.786 10.5296 12.6533 10.7951L10.7509 16.3696 7.29996 16.3696 7.29996 18.1393 11.326 18.1393C11.6799 18.0951 11.9896 17.8296 12.0781 17.4757L13.1842 14.1133 14.9539 23.6253C14.9981 23.9793 15.3078 24.2447 15.6617 24.2447L15.7502 24.2447C16.0599 24.2447 16.3696 24.0678 16.5023 23.7581L19.3338 16.3254 20.4841 20.3072C20.6169 20.7054 21.0151 20.9708 21.4575 20.8381 21.5902 20.7938 21.7229 20.7054 21.8114 20.6169L24.2005 18.1393 26.3684 18.1393 26.3684 16.3696Z" transform="matrix(1 0 0 1.01523 223.764 245.44)"/></g></g></g></svg>