<svg width="54" height="54" xmlns="http://www.w3.org/2000/svg" xmlns:xlink="http://www.w3.org/1999/xlink" xml:space="preserve" overflow="hidden"><g transform="translate(-218 -240)"><g><g><path d="M255.981 273.768C255.264 273.051 254.189 272.692 253.202 272.917L251.185 270.944C252.978 268.614 253.964 265.745 253.964 262.787 254.009 255.301 247.958 249.25 240.518 249.206 233.077 249.161 227.026 255.212 226.981 262.652 226.937 270.093 232.988 276.144 240.428 276.189 243.386 276.189 246.3 275.202 248.675 273.41L250.648 275.382C250.468 276.413 250.782 277.444 251.499 278.206L257.102 283.808C258.312 285.018 260.329 285.018 261.539 283.808 262.75 282.598 262.75 280.581 261.539 279.371L255.981 273.768ZM240.518 273.499C234.556 273.499 229.76 268.703 229.76 262.742 229.76 256.781 234.556 251.985 240.518 251.985 246.479 251.985 251.275 256.781 251.275 262.742 251.275 268.658 246.434 273.499 240.518 273.499Z"/><path d="M250.155 262.07 247.6 262.07C247.376 262.114 247.151 262.249 247.017 262.428L245.314 264.266 243.879 259.291C243.745 258.887 243.297 258.618 242.893 258.753 242.669 258.842 242.445 258.977 242.355 259.246L239.666 266.372 237.828 256.512C237.739 256.063 237.335 255.794 236.932 255.884 236.663 255.929 236.439 256.153 236.305 256.422L234.377 262.07 230.881 262.07 230.881 263.862 234.96 263.862C235.318 263.818 235.632 263.549 235.722 263.19L236.842 259.784 238.635 269.42C238.68 269.779 238.994 270.048 239.352 270.048L239.442 270.048C239.756 270.048 240.07 269.869 240.204 269.555L243.073 262.025 244.238 266.059C244.372 266.462 244.776 266.731 245.224 266.597 245.359 266.552 245.493 266.462 245.583 266.372L248.003 263.862 250.199 263.862 250.199 262.07Z"/></g></g></g></svg>