<svg width="63" height="63" xmlns="http://www.w3.org/2000/svg" xmlns:xlink="http://www.w3.org/1999/xlink" xml:space="preserve" overflow="hidden"><g transform="translate(-282 -220)"><g><g><path d="M309.992 262.324C309.177 262.319 308.5 261.695 308.43 260.883 308.418 260.734 308.529 260.604 308.677 260.592 308.685 260.591 308.693 260.591 308.7 260.591L311.282 260.591C311.431 260.591 311.552 260.711 311.553 260.86 311.553 260.868 311.552 260.875 311.552 260.883 311.483 261.694 310.806 262.32 309.992 262.324ZM309.037 261.131C309.241 261.658 309.834 261.919 310.361 261.715 310.628 261.611 310.84 261.399 310.944 261.131Z" stroke="#000000" stroke-width="0.471469"/><path d="M312.998 259.047 307.055 259.047C306.906 259.047 306.785 258.926 306.785 258.777 306.785 258.628 306.906 258.507 307.055 258.507L312.998 258.507C313.147 258.507 313.268 258.628 313.268 258.777 313.268 258.926 313.147 259.047 312.998 259.047Z" stroke="#000000" stroke-width="0.471469"/><path d="M312.998 256.886 307.055 256.886C306.906 256.886 306.785 256.765 306.785 256.616 306.785 256.467 306.906 256.346 307.055 256.346L312.998 256.346C313.147 256.346 313.268 256.467 313.268 256.616 313.268 256.765 313.147 256.886 312.998 256.886Z" stroke="#000000" stroke-width="0.471469"/><path d="M325.385 248.286 319.749 248.286 315.443 250.439 315.443 250.439C315.233 250.822 314.981 251.181 314.691 251.508 314.091 252.163 313.456 253.372 313.131 254.034 313.093 254.111 313.014 254.16 312.928 254.16L307.039 254.16C306.954 254.156 306.878 254.109 306.837 254.036 306.51 253.37 305.874 252.157 305.279 251.511 304.819 250.993 304.455 250.396 304.204 249.75 303.941 249.064 303.795 248.338 303.772 247.603L303.772 247.385C303.771 243.954 306.551 241.171 309.982 241.17 313.413 241.168 316.196 243.949 316.197 247.38L316.197 247.594C316.194 247.69 316.189 247.786 316.182 247.882 316.174 248.031 316.289 248.158 316.438 248.165 316.582 248.173 316.707 248.065 316.721 247.922 316.728 247.818 316.734 247.715 316.737 247.603L316.737 247.375C316.736 243.645 313.711 240.623 309.982 240.625 306.252 240.626 303.23 243.65 303.231 247.38L303.231 247.61C303.256 248.409 303.415 249.197 303.701 249.943 303.975 250.651 304.374 251.305 304.879 251.872 305.451 252.493 306.1 253.758 306.353 254.274 306.483 254.533 306.747 254.697 307.037 254.699L312.929 254.699C313.22 254.697 313.485 254.533 313.615 254.272 313.867 253.759 314.514 252.5 315.092 251.868 315.397 251.524 315.663 251.148 315.887 250.746L315.887 250.746 315.924 250.68 319.749 252.607 325.385 252.607 325.385 252.067 321.215 252.067C322.11 251.286 322.202 249.926 321.42 249.031 321.356 248.958 321.288 248.89 321.215 248.826L325.385 248.826ZM321.411 250.447C321.41 251.31 320.732 252.021 319.869 252.063L317.447 250.844 317.447 250.041 319.868 248.831C320.731 248.873 321.409 249.583 321.411 250.447Z" stroke="#000000" stroke-width="0.471469"/></g></g></g></svg>