<svg width="51" height="50" xmlns="http://www.w3.org/2000/svg" xmlns:xlink="http://www.w3.org/1999/xlink" xml:space="preserve" overflow="hidden"><g transform="translate(-358 -242)"><g><g><path d="M9.42555 23.7103C8.61369 23.705 7.93927 23.0826 7.86898 22.2738 7.85695 22.1256 7.96729 21.9957 8.11549 21.9837 8.12303 21.9831 8.13062 21.9828 8.13819 21.9828L10.711 21.9828C10.8597 21.9823 10.9806 22.1025 10.9811 22.2512 10.9811 22.2586 10.9808 22.2661 10.9802 22.2735 10.9115 23.0824 10.2373 23.7054 9.42555 23.7103ZM8.47389 22.5212C8.67758 23.0461 9.26825 23.3065 9.79315 23.1028 10.0601 22.9993 10.2712 22.7882 10.3748 22.5212Z" stroke="#000000" stroke-width="1.03376" transform="matrix(1.02 0 0 1 370.32 254.078)"/><path d="M12.4213 20.4437 6.49871 20.4437C6.35002 20.4437 6.2295 20.3232 6.2295 20.1745 6.2295 20.0258 6.35002 19.9053 6.49871 19.9053L12.4213 19.9053C12.57 19.9053 12.6905 20.0258 12.6905 20.1745 12.6905 20.3232 12.57 20.4437 12.4213 20.4437Z" stroke="#000000" stroke-width="1.03376" transform="matrix(1.02 0 0 1 370.32 254.078)"/><path d="M12.4213 18.2901 6.49871 18.2901C6.35002 18.2901 6.2295 18.1695 6.2295 18.0209 6.2295 17.8722 6.35002 17.7516 6.49871 17.7516L12.4213 17.7516C12.57 17.7516 12.6905 17.8722 12.6905 18.0209 12.6905 18.1695 12.57 18.2901 12.4213 18.2901Z" stroke="#000000" stroke-width="1.03376" transform="matrix(1.02 0 0 1 370.32 254.078)"/><path d="M24.7672 9.71845 19.1499 9.71845 14.8585 11.8643 14.8585 11.8643C14.6495 12.2466 14.3981 12.6042 14.109 12.9301 13.5111 13.5832 12.8779 14.7877 12.5546 15.4478 12.5161 15.5243 12.4378 15.5726 12.3521 15.5727L6.48255 15.5727C6.39843 15.5693 6.3221 15.5225 6.28092 15.4491 5.95571 14.786 5.32119 13.5773 4.72893 12.9333 4.26987 12.4168 3.9069 11.8222 3.6572 11.1778 3.39489 10.4937 3.24927 9.77046 3.22647 9.03816L3.22647 8.82063C3.22512 5.40101 5.99623 2.62774 9.41586 2.6264 12.8355 2.62507 15.6087 5.39616 15.6101 8.81579L15.6101 9.02954C15.607 9.12519 15.602 9.2206 15.595 9.31571 15.5874 9.46421 15.7016 9.59076 15.85 9.59838 15.9938 9.60578 16.1179 9.4988 16.1318 9.35555 16.1394 9.25271 16.145 9.14961 16.1482 9.03816L16.1482 8.81067C16.1468 5.09368 13.1324 2.08159 9.41545 2.083 5.69846 2.08442 2.68637 5.09879 2.68778 8.81579L2.68778 9.04542C2.71217 9.84115 2.87036 10.6271 3.15567 11.3703 3.42908 12.0763 3.82691 12.7275 4.33023 13.293 4.90014 13.9122 5.54705 15.1724 5.79903 15.6865 5.92852 15.9448 6.19205 16.1084 6.48094 16.11L12.3529 16.11C12.6427 16.1087 12.9071 15.9444 13.0367 15.6852 13.2873 15.1737 13.9324 13.9186 14.5085 13.2892 14.8123 12.946 15.0781 12.571 15.3013 12.1707L15.3013 12.1707 15.3382 12.105 19.1499 14.0258 24.7672 14.0258 24.7672 13.4874 20.6109 13.4874C21.503 12.7083 21.5946 11.3535 20.8155 10.4615 20.752 10.3888 20.6837 10.3204 20.6109 10.2569L24.7672 10.2569ZM20.8064 11.8721C20.8052 12.7327 20.1296 13.4413 19.27 13.4833L16.8554 12.2679 16.8554 11.4683 19.2692 10.262C20.1287 10.3036 20.8046 11.0116 20.8064 11.8721Z" stroke="#000000" stroke-width="1.03376" transform="matrix(1.02 0 0 1 370.32 254.078)"/></g></g></g></svg>