<svg width="96" height="96" xmlns="http://www.w3.org/2000/svg" xmlns:xlink="http://www.w3.org/1999/xlink" xml:space="preserve" overflow="hidden"><g transform="translate(-201 -244)"><path d="M229.847 304.326 246.477 311.215 244.946 314.91 228.316 308.022Z"/><path d="M260 288C260 290.209 258.209 292 256 292 253.791 292 252 290.209 252 288 252 285.791 253.791 284 256 284 258.209 284 260 285.791 260 288Z"/><path d="M260 288C260 290.209 258.209 292 256 292 253.791 292 252 290.209 252 288 252 285.791 253.791 284 256 284 258.209 284 260 285.791 260 288Z"/><path d="M258 326C265.3 320.5 270 311.8 270 302 270 291.9 264.9 282.9 257.2 277.5L265.3 258 262.5 256.9 264.7 251.5 259.2 249.2 257 254.6 254.2 253.5 237.3 294.2 237.3 294.2C236.5 296.2 236.8 298.5 238.1 300.1L237 302.7 242.5 305 243.6 302.4C245.7 302.1 247.5 300.8 248.4 298.8L248.4 298.8 249.5 296 263.2 296C263.7 297.9 264 299.9 264 302 264 315.2 253.2 326 240 326L221 326 221 332 221 334 277 334 277 332 277 326 258 326ZM256 294C252.7 294 250 291.3 250 288 250 284.7 252.7 282 256 282 259.3 282 262 284.7 262 288 262 291.3 259.3 294 256 294Z"/></g></svg>