<svg width="70" height="70" xmlns="http://www.w3.org/2000/svg" xmlns:xlink="http://www.w3.org/1999/xlink" xml:space="preserve" overflow="hidden"><g transform="translate(-316 -211)"><g><g><path d="M347.489 256.834C346.673 256.829 345.996 256.204 345.925 255.392 345.913 255.243 346.024 255.112 346.173 255.1 346.181 255.1 346.188 255.099 346.196 255.099L348.78 255.099C348.929 255.099 349.05 255.219 349.051 255.369 349.051 255.376 349.051 255.384 349.05 255.391 348.981 256.204 348.304 256.829 347.489 256.834ZM346.533 255.64C346.737 256.167 347.331 256.429 347.858 256.224 348.126 256.12 348.338 255.908 348.442 255.64Z" stroke="#000000" stroke-width="1.11232" fill="#FFFFFF"/><path d="M350.497 253.554 344.549 253.554C344.4 253.554 344.279 253.433 344.279 253.283 344.279 253.134 344.4 253.013 344.549 253.013L350.497 253.013C350.646 253.013 350.768 253.134 350.768 253.283 350.768 253.433 350.646 253.554 350.497 253.554Z" stroke="#000000" stroke-width="1.11232" fill="#FFFFFF"/><path d="M350.497 251.391 344.549 251.391C344.4 251.391 344.279 251.27 344.279 251.121 344.279 250.971 344.4 250.85 344.549 250.85L350.497 250.85C350.646 250.85 350.768 250.971 350.768 251.121 350.768 251.27 350.646 251.391 350.497 251.391Z" stroke="#000000" stroke-width="1.11232" fill="#FFFFFF"/><path d="M362.896 242.783 357.254 242.783 352.945 244.938 352.945 244.938C352.735 245.322 352.482 245.681 352.192 246.008 351.592 246.664 350.956 247.874 350.631 248.536 350.592 248.613 350.514 248.662 350.428 248.662L344.533 248.662C344.449 248.659 344.372 248.612 344.331 248.538 344.004 247.872 343.367 246.658 342.772 246.011 342.311 245.493 341.947 244.896 341.696 244.248 341.432 243.561 341.286 242.835 341.263 242.1L341.263 241.881C341.262 238.447 344.045 235.662 347.479 235.661 350.913 235.659 353.698 238.442 353.699 241.876L353.699 242.091C353.696 242.187 353.691 242.283 353.684 242.378 353.677 242.527 353.791 242.655 353.94 242.662 354.085 242.67 354.209 242.562 354.223 242.418 354.231 242.315 354.237 242.212 354.24 242.1L354.24 241.871C354.239 238.138 351.211 235.113 347.479 235.115 343.746 235.116 340.721 238.143 340.722 241.876L340.722 242.107C340.747 242.906 340.906 243.695 341.192 244.442 341.467 245.151 341.866 245.805 342.372 246.373 342.944 246.994 343.594 248.26 343.847 248.776 343.977 249.036 344.241 249.2 344.532 249.202L350.428 249.202C350.72 249.2 350.985 249.035 351.115 248.775 351.367 248.261 352.015 247.001 352.593 246.369 352.898 246.024 353.165 245.647 353.389 245.245L353.389 245.245 353.426 245.179 357.254 247.108 362.896 247.108 362.896 246.568 358.722 246.568C359.617 245.785 359.709 244.425 358.927 243.529 358.863 243.456 358.795 243.387 358.722 243.324L362.896 243.324ZM358.918 244.946C358.917 245.81 358.238 246.521 357.375 246.564L354.95 245.343 354.95 244.54 357.374 243.329C358.237 243.37 358.916 244.081 358.918 244.946Z" stroke="#000000" stroke-width="1.11232" fill="#FFFFFF"/></g></g></g></svg>