<svg width="66" height="67" xmlns="http://www.w3.org/2000/svg" xmlns:xlink="http://www.w3.org/1999/xlink" xml:space="preserve" overflow="hidden"><g transform="translate(-288 -230)"><g><g><path d="M32.0161 27.8651C31.3096 27.1585 30.2497 26.8052 29.2782 27.026L27.291 25.083C29.0574 22.7867 30.0289 19.9604 30.0289 17.0458 30.0731 9.67108 24.1115 3.70946 16.7809 3.6653 9.45028 3.62114 3.48866 9.58276 3.4445 16.9134 3.40034 24.244 9.36196 30.2056 16.6926 30.2497 19.6071 30.2497 22.4775 29.2782 24.818 27.5118L26.7611 29.4549C26.5844 30.4705 26.8936 31.4862 27.6001 32.2369L33.1202 37.757C34.3125 38.9493 36.2997 38.9493 37.492 37.757 38.6843 36.5646 38.6843 34.5774 37.492 33.3851L32.0161 27.8651ZM16.7809 27.6001C10.9076 27.6001 6.18243 22.875 6.18243 17.0017 6.18243 11.1284 10.9076 6.40323 16.7809 6.40323 22.6542 6.40323 27.3793 11.1284 27.3793 17.0017 27.3793 22.8308 22.61 27.6001 16.7809 27.6001Z" transform="matrix(1.00341 0 0 1 299.731 242.303)"/><path d="M26.2753 16.3393 23.7582 16.3393C23.5374 16.3834 23.3166 16.5159 23.1841 16.6926L21.506 18.5031 20.0929 13.6013C19.9604 13.2039 19.5188 12.9389 19.1214 13.0714 18.9006 13.1597 18.6798 13.2922 18.5914 13.5572L15.9418 20.5787 14.1313 10.8634C14.0429 10.4218 13.6455 10.1568 13.2481 10.2452 12.9831 10.2893 12.7623 10.5101 12.6298 10.7751L10.7309 16.3393 7.28643 16.3393 7.28643 18.1057 11.305 18.1057C11.6583 18.0615 11.9674 17.7966 12.0557 17.4433L13.1597 14.0871 14.9261 23.5815C14.9703 23.9348 15.2794 24.1998 15.6327 24.1998L15.721 24.1998C16.0302 24.1998 16.3393 24.0232 16.4718 23.714L19.298 16.2951 20.4462 20.2695C20.5787 20.667 20.9761 20.9319 21.4177 20.7995 21.5502 20.7553 21.6827 20.667 21.771 20.5787L24.1556 18.1057 26.3195 18.1057 26.3195 16.3393Z" transform="matrix(1.00341 0 0 1 299.731 242.303)"/></g></g></g></svg>