<svg width="96" height="96" xmlns="http://www.w3.org/2000/svg" xmlns:xlink="http://www.w3.org/1999/xlink" xml:space="preserve" overflow="hidden"><g transform="translate(-459 -239)"><path d="M514 265.9C514 269.8 510.9 272.9 507 272.9 503.1 272.9 500 269.8 500 265.9 500 262 503.1 258.9 507 258.9 510.9 258.9 514 262.1 514 265.9"/><path d="M542 269.9C542 273.8 538.9 276.9 535 276.9 531.1 276.9 528 273.8 528 269.9 528 266 531.1 262.9 535 262.9 538.9 262.9 542 266 542 269.9"/><path d="M486 269.9C486 273.8 482.9 276.9 479 276.9 475.1 276.9 472 273.8 472 269.9 472 266 475.1 262.9 479 262.9 482.9 262.9 486 266 486 269.9"/><path d="M467.6 315.1C467.6 300.5 485.2 288.7 507 288.7 528.7 288.7 546.4 300.5 546.4 315.1L467.6 315.1Z"/><path d="M476.6 292.4C480.8 289.6 485.7 287.4 491 286L491 284.9C491 283.8 490.5 282.7 489.8 282 489.5 281.7 488.8 281.3 487.9 280.9 482.4 278.3 475.9 278.3 470.3 280.8 469.3 281.2 468.5 281.7 468.1 282 467.5 282.7 467 283.8 467 284.9L467 301.9C469.3 298.4 472.5 295.1 476.6 292.4"/><path d="M519 285 519 280.9C519 279.8 518.5 278.7 517.8 278 517.5 277.7 516.8 277.3 515.9 276.9 510.4 274.3 503.9 274.3 498.3 276.8 497.3 277.2 496.5 277.7 496.1 278 495.3 278.7 494.9 279.8 494.9 280.9L494.9 285C498.8 284.2 502.8 283.8 506.9 283.8 511 283.8 515.1 284.3 519 285"/><path d="M547 301.9 547 284.9C547 283.8 546.5 282.7 545.8 282 545.5 281.7 544.8 281.3 543.9 280.9 538.4 278.3 531.9 278.3 526.3 280.8 525.3 281.2 524.5 281.7 524.1 282 523.3 282.7 522.9 283.8 522.9 284.9L522.9 286C528.2 287.4 533.1 289.6 537.3 292.4 541.5 295.1 544.7 298.4 547 301.9"/></g></svg>