<svg width="56" height="56" xmlns="http://www.w3.org/2000/svg" xmlns:xlink="http://www.w3.org/1999/xlink" xml:space="preserve" overflow="hidden"><g transform="translate(-487 -503)"><path d="M503.316 523.404C502.994 523.404 502.733 523.666 502.733 523.988L502.726 553.167 499.815 553.167 499.815 536.833 498.649 536.833 498.649 553.167 495.732 553.167 495.732 523.988C495.732 523.666 495.471 523.404 495.149 523.404 494.826 523.404 494.565 523.666 494.565 523.988L494.565 554.333 503.893 554.333 503.899 523.988C503.899 523.666 503.638 523.404 503.316 523.404Z" stroke="#000000" stroke-width="0.777776"/><path d="M499.232 515.833C501.487 515.833 503.315 514.005 503.315 511.75 503.315 509.495 501.487 507.667 499.232 507.667 496.977 507.667 495.149 509.495 495.149 511.75 495.151 514.004 496.978 515.831 499.232 515.833ZM499.232 508.833C500.843 508.833 502.149 510.139 502.149 511.75 502.149 513.361 500.843 514.667 499.232 514.667 497.621 514.667 496.315 513.361 496.315 511.75 496.317 510.14 497.622 508.835 499.232 508.833Z" stroke="#000000" stroke-width="0.777776"/><path d="M534.816 523.404C534.494 523.404 534.232 523.666 534.232 523.988L534.226 553.167 531.315 553.167 531.315 536.833 530.149 536.833 530.149 553.167 527.232 553.167 527.232 523.988C527.232 523.666 526.971 523.404 526.649 523.404 526.326 523.404 526.065 523.666 526.065 523.988L526.065 554.333 535.393 554.333 535.399 523.988C535.399 523.666 535.138 523.404 534.816 523.404Z" stroke="#000000" stroke-width="0.777776"/><path d="M530.732 515.833C532.987 515.833 534.815 514.005 534.815 511.75 534.815 509.495 532.987 507.667 530.732 507.667 528.477 507.667 526.649 509.495 526.649 511.75 526.651 514.004 528.478 515.831 530.732 515.833ZM530.732 508.833C532.343 508.833 533.649 510.139 533.649 511.75 533.649 513.361 532.343 514.667 530.732 514.667 529.121 514.667 527.815 513.361 527.815 511.75 527.817 510.14 529.122 508.835 530.732 508.833Z" stroke="#000000" stroke-width="0.777776"/><path d="M540.047 533.484 538.939 521.906C538.892 521.536 538.78 521.177 538.609 520.845 538.486 520.618 538.34 520.404 538.172 520.208 537.024 518.99 535.592 518.075 534.004 517.546 531.887 516.82 529.588 516.82 527.471 517.546 526.024 518.029 524.704 518.832 523.611 519.896 523.838 520.24 524.02 520.612 524.15 521.004 525.169 519.927 526.439 519.119 527.846 518.653 529.72 518.009 531.754 518.009 533.628 518.653 535.026 519.116 536.288 519.917 537.303 520.986 537.41 521.114 537.503 521.253 537.582 521.401 537.686 521.604 537.754 521.823 537.784 522.049L538.892 533.624C538.992 534.027 538.918 534.453 538.69 534.799 538.468 535.01 538.165 535.114 537.861 535.083 537.539 535.083 537.278 535.344 537.278 535.667 537.278 535.989 537.539 536.25 537.861 536.25 538.504 536.287 539.13 536.035 539.566 535.561 540.021 534.972 540.197 534.214 540.047 533.484Z" stroke="#000000" stroke-width="0.777776"/><path d="M492.102 535.083C491.798 535.112 491.497 535.007 491.277 534.795 491.046 534.441 490.974 534.006 491.078 533.595L492.18 522.075C492.208 521.839 492.278 521.609 492.385 521.397 492.458 521.26 492.544 521.13 492.641 521.009 493.662 519.927 494.934 519.117 496.346 518.649 497.274 518.322 498.253 518.159 499.237 518.167 500.221 518.159 501.199 518.323 502.127 518.651 503.524 519.115 504.786 519.916 505.799 520.984 505.813 521.001 505.822 521.022 505.836 521.04 505.966 520.643 506.147 520.265 506.376 519.917 505.281 518.845 503.956 518.035 502.503 517.549 501.471 517.188 500.387 517.003 499.294 517.003L499.239 517.003C498.127 517 497.023 517.184 495.972 517.546 494.37 518.08 492.927 519.005 491.772 520.237 491.615 520.426 491.476 520.631 491.36 520.848 491.184 521.187 491.071 521.555 491.025 521.934L489.92 533.46C489.765 534.196 489.939 534.963 490.397 535.56 490.834 536.034 491.459 536.287 492.102 536.25 492.425 536.25 492.686 535.989 492.686 535.667 492.686 535.344 492.425 535.083 492.102 535.083Z" stroke="#000000" stroke-width="0.777776"/><path d="M519.066 523.404C518.744 523.404 518.482 523.666 518.482 523.988L518.476 553.167 515.565 553.167 515.565 536.833 514.399 536.833 514.399 553.167 511.482 553.167 511.482 523.988C511.482 523.666 511.221 523.404 510.899 523.404 510.576 523.404 510.315 523.666 510.315 523.988L510.315 554.333 519.643 554.333 519.649 523.988C519.649 523.666 519.388 523.404 519.066 523.404Z" stroke="#000000" stroke-width="0.777776"/><path d="M514.982 515.833C517.237 515.833 519.065 514.005 519.065 511.75 519.065 509.495 517.237 507.667 514.982 507.667 512.727 507.667 510.899 509.495 510.899 511.75 510.901 514.004 512.728 515.831 514.982 515.833ZM514.982 508.833C516.593 508.833 517.899 510.139 517.899 511.75 517.899 513.361 516.593 514.667 514.982 514.667 513.371 514.667 512.065 513.361 512.065 511.75 512.067 510.14 513.372 508.835 514.982 508.833Z" stroke="#000000" stroke-width="0.777776"/><path d="M523.188 521.906C523.141 521.536 523.029 521.177 522.857 520.845 522.735 520.618 522.588 520.404 522.421 520.208 520.482 518.172 517.798 517.013 514.987 517 513.876 516.997 512.771 517.181 511.72 517.543 510.119 518.077 508.675 519.002 507.521 520.234 507.363 520.423 507.225 520.628 507.108 520.845 506.933 521.185 506.82 521.554 506.774 521.934L505.67 533.46C505.515 534.196 505.689 534.963 506.147 535.56 506.584 536.034 507.209 536.287 507.852 536.25 508.175 536.25 508.436 535.989 508.436 535.667 508.436 535.344 508.175 535.083 507.852 535.083 507.548 535.112 507.247 535.007 507.027 534.795 506.796 534.441 506.724 534.005 506.828 533.595L507.93 522.075C507.958 521.839 508.028 521.609 508.135 521.397 508.208 521.26 508.294 521.13 508.391 521.009 509.412 519.927 510.684 519.117 512.096 518.649 513.025 518.324 514.003 518.161 514.987 518.167 515.971 518.159 516.949 518.323 517.877 518.651 519.274 519.115 520.536 519.916 521.549 520.984 521.656 521.112 521.75 521.251 521.828 521.399 521.932 521.602 522 521.821 522.03 522.048L523.139 533.622C523.238 534.025 523.165 534.451 522.936 534.797 522.716 535.008 522.414 535.112 522.111 535.083 521.789 535.083 521.527 535.344 521.527 535.667 521.527 535.989 521.789 536.25 522.111 536.25 522.754 536.287 523.38 536.035 523.816 535.561 524.271 534.972 524.447 534.214 524.297 533.484Z" stroke="#000000" stroke-width="0.777776"/></g></svg>