<svg width="96" height="96" xmlns="http://www.w3.org/2000/svg" xmlns:xlink="http://www.w3.org/1999/xlink" xml:space="preserve" overflow="hidden"><g transform="translate(-426 -219)"><path d="M453.97 253.979C453.418 253.979 452.97 254.427 452.97 254.979L452.959 305 447.969 305 447.969 277 445.969 277 445.969 305 440.969 305 440.969 254.979C440.969 254.427 440.521 253.979 439.969 253.979 439.417 253.979 438.969 254.427 438.969 254.979L438.969 307 454.959 307 454.97 254.979C454.97 254.427 454.522 253.979 453.97 253.979Z" stroke="#000000" stroke-width="1.33333"/><path d="M446.969 241C450.835 241 453.969 237.866 453.969 234 453.969 230.134 450.835 227 446.969 227 443.103 227 439.969 230.134 439.969 234 439.973 237.864 443.105 240.996 446.969 241ZM446.969 229C449.73 229 451.969 231.239 451.969 234 451.969 236.761 449.73 239 446.969 239 444.208 239 441.969 236.761 441.969 234 441.972 231.24 444.209 229.003 446.969 229Z" stroke="#000000" stroke-width="1.33333"/><path d="M507.97 253.979C507.418 253.979 506.97 254.427 506.97 254.979L506.959 305 501.969 305 501.969 277 499.969 277 499.969 305 494.969 305 494.969 254.979C494.969 254.427 494.521 253.979 493.969 253.979 493.417 253.979 492.969 254.427 492.969 254.979L492.969 307 508.959 307 508.97 254.979C508.97 254.427 508.522 253.979 507.97 253.979Z" stroke="#000000" stroke-width="1.33333"/><path d="M500.969 241C504.835 241 507.969 237.866 507.969 234 507.969 230.134 504.835 227 500.969 227 497.103 227 493.969 230.134 493.969 234 493.973 237.864 497.105 240.996 500.969 241ZM500.969 229C503.73 229 505.969 231.239 505.969 234 505.969 236.761 503.73 239 500.969 239 498.208 239 495.969 236.761 495.969 234 495.972 231.24 498.209 229.003 500.969 229Z" stroke="#000000" stroke-width="1.33333"/><path d="M516.938 271.259 515.038 251.41C514.958 250.775 514.766 250.16 514.472 249.592 514.262 249.202 514.011 248.836 513.723 248.499 511.755 246.411 509.3 244.843 506.578 243.936 502.948 242.691 499.008 242.691 495.378 243.936 492.898 244.764 490.636 246.141 488.761 247.964 489.151 248.554 489.462 249.193 489.686 249.864 491.433 248.018 493.609 246.633 496.022 245.833 499.234 244.73 502.721 244.73 505.933 245.833 508.33 246.628 510.494 248.001 512.233 249.833 512.417 250.053 512.577 250.291 512.712 250.544 512.89 250.892 513.007 251.268 513.058 251.656L514.958 271.498C515.129 272.189 515.003 272.919 514.611 273.513 514.231 273.875 513.712 274.052 513.19 274 512.638 274 512.19 274.448 512.19 275 512.19 275.552 512.638 276 513.19 276 514.292 276.064 515.365 275.631 516.113 274.819 516.894 273.809 517.195 272.509 516.938 271.259Z" stroke="#000000" stroke-width="1.33333"/><path d="M434.747 274C434.226 274.049 433.709 273.868 433.332 273.506 432.936 272.898 432.812 272.152 432.99 271.449L434.88 251.7C434.928 251.295 435.047 250.902 435.231 250.538 435.356 250.303 435.504 250.08 435.671 249.872 437.42 248.018 439.602 246.628 442.021 245.827 443.613 245.267 445.29 244.987 446.978 245 448.665 244.987 450.341 245.268 451.932 245.83 454.327 246.625 456.49 247.999 458.227 249.83 458.251 249.859 458.267 249.895 458.291 249.925 458.513 249.245 458.824 248.598 459.216 248 457.338 246.162 455.068 244.774 452.576 243.941 450.808 243.322 448.949 243.006 447.076 243.005L446.981 243.005C445.075 243 443.182 243.315 441.381 243.936 438.635 244.852 436.161 246.437 434.181 248.549 433.911 248.873 433.674 249.224 433.474 249.596 433.173 250.178 432.979 250.809 432.9 251.459L431.005 271.217C430.739 272.479 431.038 273.794 431.824 274.817 432.572 275.629 433.645 276.063 434.747 276 435.299 276 435.747 275.552 435.747 275 435.747 274.448 435.299 274 434.747 274Z" stroke="#000000" stroke-width="1.33333"/><path d="M480.97 253.979C480.418 253.979 479.97 254.427 479.97 254.979L479.959 305 474.969 305 474.969 277 472.969 277 472.969 305 467.969 305 467.969 254.979C467.969 254.427 467.521 253.979 466.969 253.979 466.417 253.979 465.969 254.427 465.969 254.979L465.969 307 481.959 307 481.97 254.979C481.97 254.427 481.522 253.979 480.97 253.979Z" stroke="#000000" stroke-width="1.33333"/><path d="M473.969 241C477.835 241 480.969 237.866 480.969 234 480.969 230.134 477.835 227 473.969 227 470.103 227 466.969 230.134 466.969 234 466.973 237.864 470.105 240.996 473.969 241ZM473.969 229C476.73 229 478.969 231.239 478.969 234 478.969 236.761 476.73 239 473.969 239 471.208 239 468.969 236.761 468.969 234 468.972 231.24 471.209 229.003 473.969 229Z" stroke="#000000" stroke-width="1.33333"/><path d="M488.036 251.41C487.956 250.775 487.764 250.16 487.47 249.592 487.26 249.202 487.009 248.836 486.721 248.499 483.398 245.008 478.797 243.023 473.978 243 472.072 242.995 470.18 243.31 468.378 243.931 465.632 244.847 463.158 246.432 461.178 248.544 460.908 248.868 460.671 249.219 460.471 249.591 460.17 250.174 459.977 250.807 459.899 251.459L458.005 271.217C457.739 272.479 458.038 273.794 458.824 274.817 459.572 275.629 460.645 276.063 461.747 276 462.299 276 462.747 275.552 462.747 275 462.747 274.448 462.299 274 461.747 274 461.226 274.049 460.709 273.868 460.332 273.506 459.936 272.898 459.812 272.152 459.99 271.449L461.88 251.7C461.928 251.295 462.047 250.902 462.231 250.538 462.356 250.303 462.504 250.08 462.671 249.872 464.42 248.018 466.602 246.628 469.021 245.827 470.614 245.27 472.29 244.99 473.978 245 475.665 244.988 477.341 245.268 478.932 245.83 481.327 246.625 483.49 247.999 485.227 249.83 485.411 250.05 485.571 250.288 485.706 250.541 485.884 250.889 486.001 251.265 486.052 251.653L487.952 271.495C488.123 272.186 487.997 272.916 487.605 273.51 487.227 273.871 486.71 274.05 486.19 274 485.638 274 485.19 274.448 485.19 275 485.19 275.552 485.638 276 486.19 276 487.292 276.064 488.365 275.631 489.113 274.819 489.894 273.809 490.195 272.509 489.938 271.259Z" stroke="#000000" stroke-width="1.33333"/></g></svg>