<svg width="92" height="86" xmlns="http://www.w3.org/2000/svg" xmlns:xlink="http://www.w3.org/1999/xlink" xml:space="preserve" overflow="hidden"><g transform="translate(-428 -224)"><g><g><path d="M12.9372 16.1791C12.6817 16.1791 12.4746 16.3862 12.4746 16.6416L12.4695 39.7782 10.1615 39.7782 10.1615 26.8272 9.23641 26.8272 9.23641 39.7782 6.92372 39.7782 6.92372 16.6416C6.92372 16.3862 6.71665 16.1791 6.46119 16.1791 6.20573 16.1791 5.99865 16.3862 5.99865 16.6416L5.99865 40.7033 13.3946 40.7033 13.3997 16.6416C13.3997 16.3862 13.1926 16.1791 12.9372 16.1791Z" stroke="#000000" stroke-width="0.965297" fill="#FFFFFF" transform="matrix(1.00058 0 0 1 451.785 244.798)"/><path d="M9.69895 10.1758C11.4871 10.1758 12.9367 8.72623 12.9367 6.93806 12.9367 5.14989 11.4871 3.7003 9.69895 3.7003 7.91078 3.7003 6.46119 5.14989 6.46119 6.93806 6.46322 8.7254 7.91161 10.1738 9.69895 10.1758ZM9.69895 4.62537C10.9762 4.62537 12.0116 5.66081 12.0116 6.93806 12.0116 8.21531 10.9762 9.25075 9.69895 9.25075 8.4217 9.25075 7.38626 8.21531 7.38626 6.93806 7.38779 5.66141 8.4223 4.6269 9.69895 4.62537Z" stroke="#000000" stroke-width="0.965297" fill="#FFFFFF" transform="matrix(1.00058 0 0 1 451.785 244.798)"/><path d="M37.9142 16.1791C37.6587 16.1791 37.4517 16.3862 37.4517 16.6416L37.4466 39.7782 35.1385 39.7782 35.1385 26.8272 34.2134 26.8272 34.2134 39.7782 31.9007 39.7782 31.9007 16.6416C31.9007 16.3862 31.6937 16.1791 31.4382 16.1791 31.1828 16.1791 30.9757 16.3862 30.9757 16.6416L30.9757 40.7033 38.3716 40.7033 38.3767 16.6416C38.3767 16.3862 38.1697 16.1791 37.9142 16.1791Z" stroke="#000000" stroke-width="0.965297" fill="#FFFFFF" transform="matrix(1.00058 0 0 1 451.785 244.798)"/><path d="M34.676 10.1758C36.4641 10.1758 37.9137 8.72623 37.9137 6.93806 37.9137 5.14989 36.4641 3.7003 34.676 3.7003 32.8878 3.7003 31.4382 5.14989 31.4382 6.93806 31.4402 8.7254 32.8886 10.1738 34.676 10.1758ZM34.676 4.62537C35.9532 4.62537 36.9887 5.66081 36.9887 6.93806 36.9887 8.21531 35.9532 9.25075 34.676 9.25075 33.3987 9.25075 32.3633 8.21531 32.3633 6.93806 32.3648 5.66141 33.3993 4.6269 34.676 4.62537Z" stroke="#000000" stroke-width="0.965297" fill="#FFFFFF" transform="matrix(1.00058 0 0 1 451.785 244.798)"/><path d="M42.0622 24.1717 41.1834 14.9908C41.1464 14.6973 41.0577 14.4126 40.9216 14.1499 40.8244 13.9696 40.7082 13.8002 40.5752 13.6444 39.6648 12.6787 38.5294 11.9535 37.2703 11.5338 35.5915 10.958 33.7687 10.958 32.0899 11.5338 30.9427 11.917 29.8966 12.5538 29.0293 13.3969 29.2099 13.6698 29.3538 13.9653 29.4572 14.2758 30.2651 13.4218 31.2719 12.7812 32.3878 12.4113 33.8733 11.901 35.4866 11.901 36.972 12.4113 38.0808 12.7788 39.0818 13.4142 39.886 14.2614 39.9709 14.3631 40.0452 14.4734 40.1075 14.5903 40.1897 14.7514 40.2439 14.9253 40.2676 15.1046L41.1464 24.2823C41.2254 24.6018 41.1672 24.9397 40.9859 25.2143 40.8101 25.3816 40.5701 25.4638 40.3286 25.4396 40.0732 25.4396 39.8661 25.6466 39.8661 25.9021 39.8661 26.1576 40.0732 26.3646 40.3286 26.3646 40.8384 26.3944 41.3346 26.1939 41.6806 25.8184 42.0418 25.3514 42.1811 24.75 42.0622 24.1717Z" stroke="#000000" stroke-width="0.965297" fill="#FFFFFF" transform="matrix(1.00058 0 0 1 451.785 244.798)"/><path d="M4.04581 25.4396C3.80481 25.4622 3.5659 25.3787 3.39132 25.2111 3.20816 24.9299 3.15081 24.585 3.23314 24.2596L4.10733 15.125C4.12973 14.9377 4.18467 14.7558 4.26968 14.5875 4.32765 14.4786 4.39579 14.3755 4.4732 14.2795 5.28213 13.4221 6.29139 12.7792 7.41031 12.4085 8.14672 12.1493 8.92249 12.0199 9.70311 12.026 10.4834 12.0201 11.2588 12.15 11.9945 12.4099 13.1025 12.7777 14.1026 13.4132 14.9062 14.26 14.9173 14.2734 14.9247 14.2901 14.9358 14.304 15.0384 13.9895 15.1823 13.6901 15.3636 13.4136 14.4951 12.5635 13.445 11.9216 12.2924 11.5361 11.4747 11.25 10.6147 11.1036 9.74844 11.1032L9.7045 11.1032C8.82309 11.1009 7.94755 11.2465 7.11429 11.5338 5.84421 11.9574 4.69966 12.6907 3.78402 13.6675 3.65898 13.8175 3.54942 13.9798 3.45701 14.1518 3.31785 14.4209 3.22793 14.7127 3.19151 15.0135L2.315 24.1523C2.19206 24.736 2.33045 25.3444 2.69382 25.8175 3.03978 26.1931 3.53594 26.394 4.04581 26.3646 4.30127 26.3646 4.50835 26.1576 4.50835 25.9021 4.50835 25.6466 4.30127 25.4396 4.04581 25.4396Z" stroke="#000000" stroke-width="0.965297" fill="#FFFFFF" transform="matrix(1.00058 0 0 1 451.785 244.798)"/><path d="M25.4257 16.1791C25.1702 16.1791 24.9631 16.3862 24.9631 16.6416L24.9581 39.7782 22.65 39.7782 22.65 26.8272 21.7249 26.8272 21.7249 39.7782 19.4122 39.7782 19.4122 16.6416C19.4122 16.3862 19.2052 16.1791 18.9497 16.1791 18.6942 16.1791 18.4872 16.3862 18.4872 16.6416L18.4872 40.7033 25.8831 40.7033 25.8882 16.6416C25.8882 16.3862 25.6811 16.1791 25.4257 16.1791Z" stroke="#000000" stroke-width="0.965297" fill="#FFFFFF" transform="matrix(1.00058 0 0 1 451.785 244.798)"/><path d="M22.1875 10.1758C23.9756 10.1758 25.4252 8.72623 25.4252 6.93806 25.4252 5.14989 23.9756 3.7003 22.1875 3.7003 20.3993 3.7003 18.9497 5.14989 18.9497 6.93806 18.9517 8.7254 20.4001 10.1738 22.1875 10.1758ZM22.1875 4.62537C23.4647 4.62537 24.5001 5.66081 24.5001 6.93806 24.5001 8.21531 23.4647 9.25075 22.1875 9.25075 20.9102 9.25075 19.8748 8.21531 19.8748 6.93806 19.8763 5.66141 20.9109 4.6269 22.1875 4.62537Z" stroke="#000000" stroke-width="0.965297" fill="#FFFFFF" transform="matrix(1.00058 0 0 1 451.785 244.798)"/><path d="M28.694 14.9908C28.6569 14.6973 28.5683 14.4126 28.4322 14.1499 28.335 13.9696 28.2188 13.8002 28.0857 13.6444 26.549 12.0299 24.4206 11.1114 22.1916 11.1009 21.3102 11.0985 20.4347 11.2441 19.6014 11.5315 18.3313 11.9551 17.1868 12.6884 16.2711 13.6652 16.1461 13.8152 16.0365 13.9775 15.9441 14.1495 15.805 14.4194 15.7154 14.712 15.6796 15.0135L14.8035 24.1523C14.6806 24.736 14.819 25.3444 15.1823 25.8175 15.5283 26.1931 16.0245 26.394 16.5343 26.3646 16.7898 26.3646 16.9969 26.1576 16.9969 25.9021 16.9969 25.6466 16.7898 25.4396 16.5343 25.4396 16.2933 25.4622 16.0544 25.3787 15.8798 25.2111 15.6967 24.9299 15.6393 24.5849 15.7216 24.2596L16.5958 15.125C16.6182 14.9377 16.6732 14.7558 16.7582 14.5875 16.8162 14.4786 16.8843 14.3755 16.9617 14.2795 17.7706 13.4221 18.7799 12.7792 19.8988 12.4085 20.6356 12.1508 21.4111 12.0214 22.1916 12.026 22.9719 12.0203 23.7472 12.1502 24.483 12.4099 25.591 12.7777 26.5911 13.4132 27.3947 14.26 27.4796 14.3617 27.5539 14.472 27.6163 14.5889 27.6985 14.75 27.7526 14.924 27.7763 15.1032L28.6551 24.2809C28.7341 24.6004 28.6759 24.9383 28.4946 25.2129 28.3197 25.3799 28.0808 25.4626 27.8401 25.4396 27.5847 25.4396 27.3776 25.6466 27.3776 25.9021 27.3776 26.1576 27.5847 26.3646 27.8401 26.3646 28.3499 26.3944 28.8461 26.1939 29.1921 25.8184 29.5533 25.3514 29.6926 24.75 29.5737 24.1717Z" stroke="#000000" stroke-width="0.965297" fill="#FFFFFF" transform="matrix(1.00058 0 0 1 451.785 244.798)"/></g></g></g></svg>