<svg width="104" height="96" xmlns="http://www.w3.org/2000/svg" xmlns:xlink="http://www.w3.org/1999/xlink" xml:space="preserve" overflow="hidden"><g transform="translate(-422 -219)"><g><g><path d="M21.4142 26.7804C20.9914 26.7804 20.6486 27.1232 20.6486 27.5461L20.6402 65.8429 16.8198 65.8429 16.8198 44.4057 15.2886 44.4057 15.2886 65.8429 11.4605 65.8429 11.4605 27.5461C11.4605 27.1232 11.1177 26.7804 10.6949 26.7804 10.272 26.7804 9.92926 27.1232 9.92926 27.5461L9.92926 67.3741 22.1714 67.3741 22.1799 27.5461C22.1799 27.1232 21.8371 26.7804 21.4142 26.7804Z" stroke="#000000" stroke-width="1.02082" transform="matrix(1.00833 0 0 1 436.944 230.25)"/><path d="M16.0542 16.8435C19.014 16.8435 21.4135 14.4441 21.4135 11.4842 21.4135 8.52435 19.014 6.12492 16.0542 6.12492 13.0943 6.12492 10.6949 8.52435 10.6949 11.4842 10.6982 14.4427 13.0957 16.8402 16.0542 16.8435ZM16.0542 7.65615C18.1683 7.65615 19.8822 9.37005 19.8822 11.4842 19.8822 13.5984 18.1683 15.3123 16.0542 15.3123 13.94 15.3123 12.2261 13.5984 12.2261 11.4842 12.2286 9.37105 13.941 7.65867 16.0542 7.65615Z" stroke="#000000" stroke-width="1.02082" transform="matrix(1.00833 0 0 1 436.944 230.25)"/><path d="M62.7574 26.7804C62.3346 26.7804 61.9918 27.1232 61.9918 27.5461L61.9834 65.8429 58.163 65.8429 58.163 44.4057 56.6318 44.4057 56.6318 65.8429 52.8037 65.8429 52.8037 27.5461C52.8037 27.1232 52.4609 26.7804 52.0381 26.7804 51.6152 26.7804 51.2725 27.1232 51.2725 27.5461L51.2725 67.3741 63.5146 67.3741 63.5231 27.5461C63.5231 27.1232 63.1803 26.7804 62.7574 26.7804Z" stroke="#000000" stroke-width="1.02082" transform="matrix(1.00833 0 0 1 436.944 230.25)"/><path d="M57.3974 16.8435C60.3572 16.8435 62.7567 14.4441 62.7567 11.4842 62.7567 8.52435 60.3572 6.12492 57.3974 6.12492 54.4375 6.12492 52.0381 8.52435 52.0381 11.4842 52.0414 14.4427 54.4389 16.8402 57.3974 16.8435ZM57.3974 7.65615C59.5115 7.65615 61.2254 9.37005 61.2254 11.4842 61.2254 13.5984 59.5115 15.3123 57.3974 15.3123 55.2832 15.3123 53.5693 13.5984 53.5693 11.4842 53.5718 9.37105 55.2842 7.65867 57.3974 7.65615Z" stroke="#000000" stroke-width="1.02082" transform="matrix(1.00833 0 0 1 436.944 230.25)"/><path d="M69.6235 40.0103 68.1688 24.8136C68.1075 24.3277 67.9608 23.8565 67.7355 23.4217 67.5745 23.1232 67.3823 22.8427 67.162 22.5849 65.6551 20.9863 63.7757 19.7861 61.6917 19.0914 58.9128 18.1383 55.8957 18.1383 53.1168 19.0914 51.2179 19.7256 49.4863 20.7797 48.0507 22.1753 48.3497 22.6269 48.5878 23.1161 48.7589 23.6299 50.0962 22.2164 51.7628 21.1561 53.6099 20.5437 56.0687 19.699 58.7391 19.699 61.1979 20.5437 63.0332 21.152 64.6901 22.2039 66.0213 23.6062 66.1618 23.7746 66.2847 23.957 66.388 24.1506 66.524 24.4172 66.6136 24.7052 66.6529 25.0019L68.1076 40.1932C68.2382 40.722 68.1419 41.2813 67.8419 41.736 67.5509 42.0129 67.1536 42.149 66.7539 42.1088 66.3311 42.1088 65.9883 42.4516 65.9883 42.8744 65.9883 43.2973 66.3311 43.64 66.7539 43.64 67.5977 43.6893 68.4191 43.3574 68.9918 42.7358 69.5896 41.9628 69.8203 40.9674 69.6235 40.0103Z" stroke="#000000" stroke-width="1.02082" transform="matrix(1.00833 0 0 1 436.944 230.25)"/><path d="M6.69683 42.1088C6.29791 42.1462 5.90245 42.0081 5.61349 41.7306 5.3103 41.2652 5.21537 40.6943 5.35165 40.1557L6.79866 25.0356C6.83574 24.7257 6.92668 24.4246 7.06739 24.146 7.16334 23.9657 7.27613 23.795 7.40426 23.6361 8.74324 22.2169 10.4138 21.1527 12.2659 20.5391 13.4848 20.1102 14.7689 19.896 16.0611 19.906 17.3527 19.8963 18.6361 20.1113 19.8539 20.5414 21.6879 21.1503 23.3434 22.2021 24.6735 23.6039 24.6918 23.6261 24.7041 23.6537 24.7225 23.6766 24.8923 23.1562 25.1305 22.6606 25.4307 22.2028 23.993 20.7957 22.2548 19.7332 20.347 19.0952 18.9935 18.6215 17.57 18.3793 16.1361 18.3786L16.0634 18.3786C14.6044 18.3748 13.1552 18.6158 11.7759 19.0914 9.67362 19.7924 7.7791 21.0062 6.26349 22.6231 6.05652 22.8714 5.87517 23.14 5.7222 23.4247 5.49186 23.8702 5.34303 24.3532 5.28274 24.8511L3.8319 39.9781C3.62841 40.9443 3.85747 41.9512 4.45894 42.7343 5.0316 43.3561 5.85286 43.6886 6.69683 43.64 7.11967 43.64 7.46245 43.2973 7.46245 42.8744 7.46245 42.4516 7.11967 42.1088 6.69683 42.1088Z" stroke="#000000" stroke-width="1.02082" transform="matrix(1.00833 0 0 1 436.944 230.25)"/><path d="M42.0858 26.7804C41.663 26.7804 41.3202 27.1232 41.3202 27.5461L41.3118 65.8429 37.4914 65.8429 37.4914 44.4057 35.9602 44.4057 35.9602 65.8429 32.1321 65.8429 32.1321 27.5461C32.1321 27.1232 31.7893 26.7804 31.3665 26.7804 30.9436 26.7804 30.6009 27.1232 30.6009 27.5461L30.6009 67.3741 42.843 67.3741 42.8515 27.5461C42.8515 27.1232 42.5087 26.7804 42.0858 26.7804Z" stroke="#000000" stroke-width="1.02082" transform="matrix(1.00833 0 0 1 436.944 230.25)"/><path d="M36.7258 16.8435C39.6856 16.8435 42.0851 14.4441 42.0851 11.4842 42.0851 8.52435 39.6856 6.12492 36.7258 6.12492 33.7659 6.12492 31.3665 8.52435 31.3665 11.4842 31.3698 14.4427 33.7673 16.8402 36.7258 16.8435ZM36.7258 7.65615C38.8399 7.65615 40.5538 9.37005 40.5538 11.4842 40.5538 13.5984 38.8399 15.3123 36.7258 15.3123 34.6116 15.3123 32.8977 13.5984 32.8977 11.4842 32.9002 9.37105 34.6127 7.65867 36.7258 7.65615Z" stroke="#000000" stroke-width="1.02082" transform="matrix(1.00833 0 0 1 436.944 230.25)"/><path d="M47.4957 24.8136C47.4343 24.3277 47.2877 23.8565 47.0623 23.4217 46.9014 23.1232 46.7092 22.8427 46.4889 22.5849 43.9451 19.9124 40.4222 18.3921 36.7327 18.3748 35.2737 18.3708 33.8245 18.6118 32.4452 19.0875 30.3429 19.7886 28.4484 21.0024 26.9328 22.6193 26.7258 22.8676 26.5445 23.1362 26.3915 23.4209 26.1613 23.8677 26.0129 24.3521 25.9536 24.8511L24.5035 39.9781C24.3 40.9443 24.5291 41.9512 25.1305 42.7343 25.7032 43.3561 26.5245 43.6886 27.3684 43.64 27.7913 43.64 28.134 43.2973 28.134 42.8744 28.134 42.4516 27.7913 42.1088 27.3684 42.1088 26.9695 42.1462 26.574 42.0081 26.2851 41.7306 25.9819 41.2652 25.887 40.6942 26.0232 40.1557L27.4703 25.0356C27.5073 24.7257 27.5983 24.4246 27.739 24.146 27.8349 23.9657 27.9477 23.795 28.0759 23.6361 29.4148 22.2169 31.0854 21.1527 32.9375 20.5391 34.1571 20.1125 35.4407 19.8984 36.7327 19.906 38.0242 19.8966 39.3076 20.1115 40.5255 20.5414 42.3595 21.1503 44.015 22.2021 45.3451 23.6039 45.4856 23.7723 45.6085 23.9547 45.7118 24.1483 45.8478 24.4149 45.9374 24.7029 45.9767 24.9996L47.4314 40.1909C47.562 40.7198 47.4657 41.279 47.1657 41.7337 46.8762 42.0101 46.4808 42.147 46.0823 42.1088 45.6595 42.1088 45.3167 42.4516 45.3167 42.8744 45.3167 43.2973 45.6595 43.64 46.0823 43.64 46.9261 43.6893 47.7475 43.3574 48.3202 42.7358 48.918 41.9628 49.1487 40.9674 48.9519 40.0103Z" stroke="#000000" stroke-width="1.02082" transform="matrix(1.00833 0 0 1 436.944 230.25)"/></g></g></g></svg>